<?xml version="1.0" encoding="UTF-8"?>
<svg version="1.1" viewBox="0 0 192 192" xml:space="preserve" xmlns="http://www.w3.org/2000/svg" xmlns:cc="http://creativecommons.org/ns#" xmlns:dc="http://purl.org/dc/elements/1.1/" xmlns:rdf="http://www.w3.org/1999/02/22-rdf-syntax-ns#"><metadata><rdf:RDF><cc:Work rdf:about=""><dc:format>image/svg+xml</dc:format><dc:type rdf:resource="http://purl.org/dc/dcmitype/StillImage"/><dc:title/></cc:Work></rdf:RDF></metadata>
<style type="text/css">
	.st0{fill:#FBD000;}
	.st1{fill:#FFFFFF;}
	.st2{fill:#415E6D;}
	.st3{fill:#EAEAEA;}
	.st4{fill:#233E49;}
	.st5{fill:#D4D6D6;}
	.st6{fill:#2EBC93;}
	.st7{fill:#0EB8E0;}
	.st8{fill:#EA5E5E;}
	.st9{fill:#92C438;}
	.st10{fill:#F74541;}
</style>
<g transform="matrix(1 0 0 .95716 -.55014 49.739)">
	<path class="st1" d="m57 119c-2.2 0-4-1.8-4-4s1.8-4 4-4 4 1.8 4 4-1.8 4-4 4zm0-6.1c-1.2 0-2.1 1-2.1 2.1 0 1.2 1 2.1 2.1 2.1s2.1-1 2.1-2.1c0-1.2-0.9-2.1-2.1-2.1z" fill="#fff"/>
	<path class="st1" d="m56.3 11c0-0.4-0.4-0.8-1-0.9l-1.9-0.3c-0.5-0.1-1.1-0.6-1.1-1.1l-0.3-1.8c-0.1-0.5-0.5-1-0.9-1s-0.8 0.4-0.9 1l-0.2 1.8c-0.1 0.5-0.6 1.1-1.1 1.1l-1.9 0.4c-0.5 0.1-1 0.5-1 0.9s0.4 0.8 1 0.9l1.9 0.3c0.5 0.1 1.1 0.6 1.1 1.1l0.3 1.9c0.1 0.5 0.5 1 0.9 1s0.8-0.4 0.9-1l0.3-2.1c0.1-0.5 0.6-1 1.1-1.1l1.8-0.1c0.5-0.2 1-0.6 1-1z" fill="#fff"/>
	<path class="st2" d="m118.6 100.1c0 2.2-1.8 4-4 4l-101.6-0.1c-2.2 0-4-1.8-4-4v-76.3c0-2.2 1.8-4 4-4h101c2.2 0 4 1.8 4 4z" fill="#415e6d"/>
	<path class="st3" d="m118.7 35.1h-109.7v-11.4c0-2.2 1.8-4 4-4h101.7c0.5 0 4 1.8 4 4z" fill="#eaeaea"/>
	<path class="st4" d="m114 105h-101c-2.8 0-5-2.2-5-5v-76c0-2.8 2.2-5 5-5h101c1.3 0 2.6 0.5 3.5 1.5 0.9 0.9 1.5 2.2 1.5 3.5v76c0 2.8-2.2 5-5 5zm-101-84c-1.7 0-3 1.3-3 3v76c0 1.7 1.3 3 3 3h101c1.7 0 3-1.3 3-3v-76c0-0.8-0.3-1.5-0.9-2.1s-1.3-0.9-2.1-0.9z" fill="#233e49"/>
	<rect class="st5" x="45" y="25" width="67" height="5" fill="#d4d6d6"/>
	<path class="st4" d="m117.6 36h-108.6c-0.6 0-1-0.4-1-1s0.4-1 1-1h108.6c0.6 0 1 0.4 1 1s-0.5 1-1 1z" fill="#233e49"/>
	<path class="st6" d="m46 45h-26c-1.1 0-2-0.9-2-2s0.9-2 2-2h26c1.1 0 2 0.9 2 2s-0.9 2-2 2z" fill="#2ebc93"/>
	<path class="st1" d="m82 45h-26c-1.1 0-2-0.9-2-2s0.9-2 2-2h26c1.1 0 2 0.9 2 2s-0.9 2-2 2z" fill="#fff"/>
	<path class="st1" d="m77 54h-57c-1.1 0-2-0.9-2-2s0.9-2 2-2h57c1.1 0 2 0.9 2 2s-0.9 2-2 2z" fill="#fff"/>
	<path class="st1" d="m107 63h-9c-1.1 0-2-0.9-2-2s0.9-2 2-2h9c1.1 0 2 0.9 2 2s-0.9 2-2 2z" fill="#fff"/>
	<path class="st1" d="m88 63h-26c-1.1 0-2-0.9-2-2s0.9-2 2-2h26c1.1 0 2 0.9 2 2s-0.9 2-2 2z" fill="#fff"/>
	<path class="st7" d="m51 63h-31c-1.1 0-2-0.9-2-2s0.9-2 2-2h31c1.1 0 2 0.9 2 2s-0.9 2-2 2z" fill="#0eb8e0"/>
	<path class="st1" d="m98 72h-17c-1.1 0-2-0.9-2-2s0.9-2 2-2h17c1.1 0 2 0.9 2 2s-0.9 2-2 2z" fill="#fff"/>
	<path class="st1" d="m71 72h-25c-1.1 0-2-0.9-2-2s0.9-2 2-2h25c1.1 0 2 0.9 2 2s-0.9 2-2 2z" fill="#fff"/>
	<path class="st8" d="m34 72h-14c-1.1 0-2-0.9-2-2s0.9-2 2-2h14c1.1 0 2 0.9 2 2s-0.9 2-2 2z" fill="#ea5e5e"/>
	<path class="st8" d="m107 81h-11c-1.1 0-2-0.9-2-2s0.9-2 2-2h11c1.1 0 2 0.9 2 2s-0.9 2-2 2z" fill="#ea5e5e"/>
	<path class="st7" d="m84 81h-20c-1.1 0-2-0.9-2-2s0.9-2 2-2h20c1.1 0 2 0.9 2 2s-0.9 2-2 2z" fill="#0eb8e0"/>
	<path class="st1" d="m52 81h-32c-1.1 0-2-0.9-2-2s0.9-2 2-2h32c1.1 0 2 0.9 2 2s-0.9 2-2 2z" fill="#fff"/>
	<path class="st7" d="m45 90h-25c-1.1 0-2-0.9-2-2s0.9-2 2-2h25c1.1 0 2 0.9 2 2s-0.9 2-2 2z" fill="#0eb8e0"/>
	<circle class="st9" cx="26.5" cy="27.5" r="2.5" fill="#92c438"/>
	<circle class="st10" cx="17.5" cy="27.5" r="2.5" fill="#f74541"/>
	<circle class="st0" cx="35.5" cy="27.5" r="2.5" fill="#fbd000"/>
</g><g transform="matrix(.5 0 0 .47858 -43.896 -151.2)" fill="#415e6d" stroke="#233e49" stroke-width="4"><g transform="matrix(3.8479 0 0 3.8479 -1123.6 -365.86)" fill="#415e6d" stroke="#233e49" stroke-width="1.0395"><g fill="#415e6d" stroke="#233e49" stroke-width="1.0395"><path d="m380.62 198.38c-1.108 0-2 0.8229-2 1.8438v16.812c0 1.0208 0.892 1.8438 2 1.8438h1.1875c-0.44149 1.9459-1.3931 3.8212-2.3125 5.6875 2.3645-1.6274 4.148-3.4 5.6875-5.6875h23.438c1.108 0 2-0.8229 2-1.8438v-16.812c0-1.0208-0.892-1.8438-2-1.8438h-28z" fill="#415e6d" stroke="#233e49" stroke-linecap="round" stroke-linejoin="round" stroke-width="1.0395"/></g></g></g><text transform="scale(1.0221 .97834)" x="150.48851" y="56.518814" fill="#eeeeee" font-family="'Segoe Print'" font-size="13.045px" letter-spacing="0px" stroke-width=".97834" text-align="center" text-anchor="middle" word-spacing="0px" style="line-height:0.25" xml:space="preserve"><tspan x="150.48851" y="56.518814" text-align="center" style="line-height:0.25">Hello</tspan><tspan x="150.48851" y="69.116234" text-align="center" style="line-height:0.25">World</tspan></text>
</svg>
