<?xml version="1.0" encoding="UTF-8" standalone="no"?>
<!-- Generator: Adobe Illustrator 21.0.2, SVG Export Plug-In . SVG Version: 6.00 Build 0)  -->

<svg
   xmlns:dc="http://purl.org/dc/elements/1.1/"
   xmlns:cc="http://creativecommons.org/ns#"
   xmlns:rdf="http://www.w3.org/1999/02/22-rdf-syntax-ns#"
   xmlns:svg="http://www.w3.org/2000/svg"
   xmlns="http://www.w3.org/2000/svg"
   xmlns:sodipodi="http://sodipodi.sourceforge.net/DTD/sodipodi-0.dtd"
   xmlns:inkscape="http://www.inkscape.org/namespaces/inkscape"
   version="1.1"
   id="console"
   x="0px"
   y="0px"
   viewBox="0 0 192 192"
   xml:space="preserve"
   sodipodi:docname="Console Chat Logo.svg"
   width="192"
   height="192"
   inkscape:version="0.92.4 (5da689c313, 2019-01-14)"><metadata
   id="metadata218"><rdf:RDF><cc:Work
       rdf:about=""><dc:format>image/svg+xml</dc:format><dc:type
         rdf:resource="http://purl.org/dc/dcmitype/StillImage" /><dc:title></dc:title></cc:Work></rdf:RDF></metadata><defs
   id="defs216" /><sodipodi:namedview
   pagecolor="#ffffff"
   bordercolor="#666666"
   borderopacity="1"
   objecttolerance="10"
   gridtolerance="10"
   guidetolerance="10"
   inkscape:pageopacity="0"
   inkscape:pageshadow="2"
   inkscape:window-width="1920"
   inkscape:window-height="1017"
   id="namedview214"
   showgrid="false"
   inkscape:zoom="3.6875"
   inkscape:cx="41.602701"
   inkscape:cy="94.946431"
   inkscape:window-x="-8"
   inkscape:window-y="-8"
   inkscape:window-maximized="1"
   inkscape:current-layer="console" />
<style
   type="text/css"
   id="style159">
	.st0{fill:#FBD000;}
	.st1{fill:#FFFFFF;}
	.st2{fill:#415E6D;}
	.st3{fill:#EAEAEA;}
	.st4{fill:#233E49;}
	.st5{fill:#D4D6D6;}
	.st6{fill:#2EBC93;}
	.st7{fill:#0EB8E0;}
	.st8{fill:#EA5E5E;}
	.st9{fill:#92C438;}
	.st10{fill:#F74541;}
</style>

<g
   id="g211"
   transform="matrix(1,0,0,0.95715869,-0.55014293,49.739037)">
	
	
	<path
   class="st1"
   d="m 57,119 c -2.2,0 -4,-1.8 -4,-4 0,-2.2 1.8,-4 4,-4 2.2,0 4,1.8 4,4 0,2.2 -1.8,4 -4,4 z m 0,-6.1 c -1.2,0 -2.1,1 -2.1,2.1 0,1.2 1,2.1 2.1,2.1 1.1,0 2.1,-1 2.1,-2.1 0,-1.2 -0.9,-2.1 -2.1,-2.1 z"
   id="path165"
   inkscape:connector-curvature="0"
   style="fill:#ffffff" />
	<path
   class="st1"
   d="m 56.3,11 c 0,-0.4 -0.4,-0.8 -1,-0.9 L 53.4,9.8 C 52.9,9.7 52.3,9.2 52.3,8.7 L 52,6.9 c -0.1,-0.5 -0.5,-1 -0.9,-1 -0.4,0 -0.8,0.4 -0.9,1 L 50,8.7 C 49.9,9.2 49.4,9.8 48.9,9.8 L 47,10.2 c -0.5,0.1 -1,0.5 -1,0.9 0,0.4 0.4,0.8 1,0.9 l 1.9,0.3 c 0.5,0.1 1.1,0.6 1.1,1.1 l 0.3,1.9 c 0.1,0.5 0.5,1 0.9,1 0.4,0 0.8,-0.4 0.9,-1 l 0.3,-2.1 c 0.1,-0.5 0.6,-1 1.1,-1.1 L 55.3,12 c 0.5,-0.2 1,-0.6 1,-1 z"
   id="path167"
   inkscape:connector-curvature="0"
   style="fill:#ffffff" />
	<path
   class="st2"
   d="m 118.6,100.1 c 0,2.2 -1.8,4 -4,4 L 13,104 c -2.2,0 -4,-1.8 -4,-4 V 23.7 c 0,-2.2 1.8,-4 4,-4 h 101 c 2.2,0 4,1.8 4,4 z"
   id="path169"
   inkscape:connector-curvature="0"
   style="fill:#415e6d" />
	<path
   class="st3"
   d="M 118.7,35.1 H 9 V 23.7 c 0,-2.2 1.8,-4 4,-4 h 101.7 c 0.5,0 4,1.8 4,4 z"
   id="path171"
   inkscape:connector-curvature="0"
   style="fill:#eaeaea" />
	<path
   class="st4"
   d="M 114,105 H 13 c -2.8,0 -5,-2.2 -5,-5 V 24 c 0,-2.8 2.2,-5 5,-5 h 101 c 1.3,0 2.6,0.5 3.5,1.5 0.9,0.9 1.5,2.2 1.5,3.5 v 76 c 0,2.8 -2.2,5 -5,5 z M 13,21 c -1.7,0 -3,1.3 -3,3 v 76 c 0,1.7 1.3,3 3,3 h 101 c 1.7,0 3,-1.3 3,-3 V 24 c 0,-0.8 -0.3,-1.5 -0.9,-2.1 C 115.5,21.3 114.8,21 114,21 Z"
   id="path173"
   inkscape:connector-curvature="0"
   style="fill:#233e49" />
	<rect
   x="45"
   y="25"
   class="st5"
   width="67"
   height="5"
   id="rect175"
   style="fill:#d4d6d6" />
	<path
   class="st4"
   d="M 117.6,36 H 9 C 8.4,36 8,35.6 8,35 8,34.4 8.4,34 9,34 h 108.6 c 0.6,0 1,0.4 1,1 0,0.6 -0.5,1 -1,1 z"
   id="path177"
   inkscape:connector-curvature="0"
   style="fill:#233e49" />
	<path
   class="st6"
   d="M 46,45 H 20 c -1.1,0 -2,-0.9 -2,-2 0,-1.1 0.9,-2 2,-2 h 26 c 1.1,0 2,0.9 2,2 0,1.1 -0.9,2 -2,2 z"
   id="path179"
   inkscape:connector-curvature="0"
   style="fill:#2ebc93" />
	<path
   class="st1"
   d="M 82,45 H 56 c -1.1,0 -2,-0.9 -2,-2 0,-1.1 0.9,-2 2,-2 h 26 c 1.1,0 2,0.9 2,2 0,1.1 -0.9,2 -2,2 z"
   id="path181"
   inkscape:connector-curvature="0"
   style="fill:#ffffff" />
	<path
   class="st1"
   d="M 77,54 H 20 c -1.1,0 -2,-0.9 -2,-2 0,-1.1 0.9,-2 2,-2 h 57 c 1.1,0 2,0.9 2,2 0,1.1 -0.9,2 -2,2 z"
   id="path183"
   inkscape:connector-curvature="0"
   style="fill:#ffffff" />
	<path
   class="st1"
   d="m 107,63 h -9 c -1.1,0 -2,-0.9 -2,-2 0,-1.1 0.9,-2 2,-2 h 9 c 1.1,0 2,0.9 2,2 0,1.1 -0.9,2 -2,2 z"
   id="path185"
   inkscape:connector-curvature="0"
   style="fill:#ffffff" />
	<path
   class="st1"
   d="M 88,63 H 62 c -1.1,0 -2,-0.9 -2,-2 0,-1.1 0.9,-2 2,-2 h 26 c 1.1,0 2,0.9 2,2 0,1.1 -0.9,2 -2,2 z"
   id="path187"
   inkscape:connector-curvature="0"
   style="fill:#ffffff" />
	<path
   class="st7"
   d="M 51,63 H 20 c -1.1,0 -2,-0.9 -2,-2 0,-1.1 0.9,-2 2,-2 h 31 c 1.1,0 2,0.9 2,2 0,1.1 -0.9,2 -2,2 z"
   id="path189"
   inkscape:connector-curvature="0"
   style="fill:#0eb8e0" />
	<path
   class="st1"
   d="M 98,72 H 81 c -1.1,0 -2,-0.9 -2,-2 0,-1.1 0.9,-2 2,-2 h 17 c 1.1,0 2,0.9 2,2 0,1.1 -0.9,2 -2,2 z"
   id="path191"
   inkscape:connector-curvature="0"
   style="fill:#ffffff" />
	<path
   class="st1"
   d="M 71,72 H 46 c -1.1,0 -2,-0.9 -2,-2 0,-1.1 0.9,-2 2,-2 h 25 c 1.1,0 2,0.9 2,2 0,1.1 -0.9,2 -2,2 z"
   id="path193"
   inkscape:connector-curvature="0"
   style="fill:#ffffff" />
	<path
   class="st8"
   d="M 34,72 H 20 c -1.1,0 -2,-0.9 -2,-2 0,-1.1 0.9,-2 2,-2 h 14 c 1.1,0 2,0.9 2,2 0,1.1 -0.9,2 -2,2 z"
   id="path195"
   inkscape:connector-curvature="0"
   style="fill:#ea5e5e" />
	<path
   class="st8"
   d="M 107,81 H 96 c -1.1,0 -2,-0.9 -2,-2 0,-1.1 0.9,-2 2,-2 h 11 c 1.1,0 2,0.9 2,2 0,1.1 -0.9,2 -2,2 z"
   id="path197"
   inkscape:connector-curvature="0"
   style="fill:#ea5e5e" />
	<path
   class="st7"
   d="M 84,81 H 64 c -1.1,0 -2,-0.9 -2,-2 0,-1.1 0.9,-2 2,-2 h 20 c 1.1,0 2,0.9 2,2 0,1.1 -0.9,2 -2,2 z"
   id="path199"
   inkscape:connector-curvature="0"
   style="fill:#0eb8e0" />
	<path
   class="st1"
   d="M 52,81 H 20 c -1.1,0 -2,-0.9 -2,-2 0,-1.1 0.9,-2 2,-2 h 32 c 1.1,0 2,0.9 2,2 0,1.1 -0.9,2 -2,2 z"
   id="path201"
   inkscape:connector-curvature="0"
   style="fill:#ffffff" />
	<path
   class="st7"
   d="M 45,90 H 20 c -1.1,0 -2,-0.9 -2,-2 0,-1.1 0.9,-2 2,-2 h 25 c 1.1,0 2,0.9 2,2 0,1.1 -0.9,2 -2,2 z"
   id="path203"
   inkscape:connector-curvature="0"
   style="fill:#0eb8e0" />
	<circle
   class="st9"
   cx="26.5"
   cy="27.5"
   r="2.5"
   id="circle205"
   style="fill:#92c438" />
	<circle
   class="st10"
   cx="17.5"
   cy="27.5"
   r="2.5"
   id="circle207"
   style="fill:#f74541" />
	<circle
   class="st0"
   cx="35.5"
   cy="27.5"
   r="2.5"
   id="circle209"
   style="fill:#fbd000" />
</g><g
   transform="matrix(0.5,0,0,0.47857935,-43.895639,-151.19586)"
   inkscape:label="Calque 1"
   id="layer1"
   style="fill:#415e6d;fill-opacity:1;stroke:#233e49;stroke-width:4;stroke-miterlimit:4;stroke-dasharray:none;stroke-opacity:1"><g
     transform="matrix(3.8479,0,0,3.8479,-1123.6339,-365.86254)"
     id="g3938"
     style="fill:#415e6d;fill-opacity:1;stroke:#233e49;stroke-width:1.03952801;stroke-miterlimit:4;stroke-dasharray:none;stroke-opacity:1"><g
       id="g3935"
       style="fill:#415e6d;fill-opacity:1;stroke:#233e49;stroke-width:1.03952801;stroke-miterlimit:4;stroke-dasharray:none;stroke-opacity:1"><path
         d="m 380.62,198.38 c -1.108,0 -2,0.8229 -2,1.8438 v 16.812 c 0,1.0208 0.892,1.8438 2,1.8438 h 1.1875 c -0.44149,1.9459 -1.3931,3.8212 -2.3125,5.6875 2.3645,-1.6274 4.148,-3.4 5.6875,-5.6875 h 0.0937 23.344 c 1.108,0 2,-0.8229 2,-1.8438 v -16.812 c 0,-1.0208 -0.892,-1.8438 -2,-1.8438 h -28 z"
         style="fill:#415e6d;fill-opacity:1;stroke:#233e49;stroke-width:1.03952801;stroke-linecap:round;stroke-linejoin:round;stroke-miterlimit:4;stroke-dasharray:none;stroke-opacity:1"
         id="path3897"
         inkscape:connector-curvature="0" /></g></g></g><text
   xml:space="preserve"
   style="font-style:normal;font-variant:normal;font-weight:normal;font-stretch:normal;font-size:39.13379669px;line-height:0.25;font-family:'Segoe Print';-inkscape-font-specification:'Segoe Print';text-align:center;letter-spacing:0px;word-spacing:0px;text-anchor:middle;fill:#eeeeee;fill-opacity:1;stroke:none;stroke-width:0.97834486"
   x="150.48851"
   y="56.518814"
   id="text4820"
   transform="scale(1.0221345,0.97834484)"><tspan
     sodipodi:role="line"
     x="150.48851"
     y="56.518814"
     style="font-style:normal;font-variant:normal;font-weight:normal;font-stretch:normal;font-size:13.04459858px;line-height:0.25;font-family:'Segoe Print';-inkscape-font-specification:'Segoe Print';text-align:center;text-anchor:middle;fill:#eeeeee;fill-opacity:1;stroke-width:0.97834486"
     id="tspan4826">Hello</tspan><tspan
     sodipodi:role="line"
     x="150.48851"
     y="69.116234"
     style="font-style:normal;font-variant:normal;font-weight:normal;font-stretch:normal;font-size:13.04459858px;line-height:0.25;font-family:'Segoe Print';-inkscape-font-specification:'Segoe Print';text-align:center;text-anchor:middle;fill:#eeeeee;fill-opacity:1;stroke-width:0.97834486"
     id="tspan4830">World</tspan></text>
</svg>