<?xml version="1.0" encoding="UTF-8"?>
<svg width="184.93" height="184.93" version="1.1" viewBox="0 0 184.92599 184.92599" xml:space="preserve" xmlns="http://www.w3.org/2000/svg" xmlns:cc="http://creativecommons.org/ns#" xmlns:dc="http://purl.org/dc/elements/1.1/" xmlns:rdf="http://www.w3.org/1999/02/22-rdf-syntax-ns#"><metadata><rdf:RDF><cc:Work rdf:about=""><dc:format>image/svg+xml</dc:format><dc:type rdf:resource="http://purl.org/dc/dcmitype/StillImage"/><dc:title/></cc:Work></rdf:RDF></metadata>
<g transform="matrix(.45 0 0 .45 232.07 -239.02)">
<g transform="matrix(.72 0 0 .72 -130.28 500.18)" opacity=".98"><g transform="matrix(.75 0 0 .75 -441.3 136.13)"><rect x="92" y="28" width="8" height="8"/><rect x="28" y="16" width="8" height="8"/><rect x="44" y="40" width="8" height="8"/><path d="m112 40v35.2c-3.3-2.3-7.3-4.2-12-5.8v-25.4h-8v23.1c-8.7-2.1-18.4-3.1-28-3.1-4 0-8 0.2-12 0.5v-8.5h-8v9.5c-2.7 0.4-5.4 1-8 1.6v-35.1h-8v37.4c-4.7 1.6-8.7 3.5-12 5.8v-19.2h-8v32c0 15.6 28.9 24 56 24s56-8.4 56-24v-48zm-96 48c0-5 10.3-11.5 28-14.4v28.9c-17.7-3-28-9.5-28-14.5zm72 13.7v-21.7h-8v23c-4.9 0.6-10.2 1-16 1-4.2 0-8.2-0.2-12-0.5v-31c3.8-0.3 7.8-0.5 12-0.5 29.7 0 48 9.3 48 16 0 4.6-8.8 10.5-24 13.7z"/><g class="st1" display="none" fill="#464646" stroke="#21759b" stroke-miterlimit="10" stroke-width="2"><path class="st2" d="m120 8v112h-112v-112h112m8-8h-128v128h128z" display="inline" fill="#f45efd" opacity=".25"/></g></g><path d="m-291.37 202.06c0 4.0158 3.2524 7.268 7.268 7.268h10.903v11.212c0 2.0174 1.6362 3.6336 3.6344 3.6336 1.0184 0 1.9428-0.419 2.5978-1.0896l13.756-13.756h39.976c4.0156 0 7.268-3.2522 7.268-7.268v-45.428c0-4.0158-3.2524-7.2682-7.268-7.2682h-70.867c-4.0158 0-7.268 3.2524-7.268 7.2682v45.427zm21.805-20.896c0-2.5072 2.0354-4.5426 4.5426-4.5426s4.5426 2.0354 4.5426 4.5426c0 2.5074-2.0354 4.5426-4.5426 4.5426-2.5074 0-4.5426-2.0354-4.5426-4.5426zm16.354 0c0-2.5072 2.0354-4.5426 4.5426-4.5426 2.5074 0 4.543 2.0354 4.543 4.5426 0 2.5074-2.0356 4.5426-4.543 4.5426-2.5072 0-4.5426-2.0354-4.5426-4.5426zm16.354 0c0-2.5072 2.0352-4.5426 4.543-4.5426 2.5074 0 4.5422 2.0354 4.5422 4.5426 0 2.5074-2.0348 4.5426-4.5422 4.5426-2.508 0-4.543-2.0354-4.543-4.5426z" clip-rule="evenodd" fill="#010101" fill-rule="evenodd" stroke-width=".2"/><path d="m-430.71 433.19v12.8s0.1906 6.4 6.4 6.4h64c6.2875 0 6.4-6.4 6.4-6.4v-12.8s-0.05-6.4-6.4-6.4h-64c-6.4906 0-6.4 6.4-6.4 6.4zm0 32v12.8s0.1906 6.4 6.4 6.4h64c6.2875 0 6.4-6.4 6.4-6.4v-12.8s-0.05-6.4-6.4-6.4h-64c-6.4906 0-6.4 6.4-6.4 6.4zm0 32v12.8s0.1906 6.4 6.4 6.4h64c6.2875 0 6.4-6.4 6.4-6.4v-12.8s-0.05-6.4-6.4-6.4h-64c-6.4906 0-6.4 6.4-6.4 6.4zm6.4-19.2v-12.8h6.4v12.8zm12.8 0v-12.8h6.4v12.8zm12.8 0v-12.8h6.4v12.8zm12.8 0v-12.8h6.4v12.8zm19.2-6.4v-6.4h6.4v6.4zm-57.6-25.6v-12.8h6.4v12.8zm12.8 0v-12.8h6.4v12.8zm12.8 0v-12.8h6.4v12.8zm12.8 0v-12.8h6.4v12.8zm19.2-6.4v-6.4h6.4v6.4zm-57.6 70.4v-12.8h6.4v12.8zm12.8 0v-12.8h6.4v12.8zm12.8 0v-12.8h6.4v12.8zm12.8 0v-12.8h6.4v12.8zm19.2-6.4v-6.4h6.4v6.4z" stroke-width=".1"/><path class="st2" d="m-91.033 208.85c5.0226-1.5678 9.2613-4.0065 12.6-8.2742-18.261 10.539-36.29 10.219-54.29 0.20322 0.43548 1.1323 2.4677 3.2226 5.1387 4.8194 2.0613 1.2193 4.2968 2.2064 6.5032 3.3097-0.20323 0.26128-0.49355 0.66773-0.8129 1.0742-0.75484 0.95807-1.6258 1.829-2.2645 2.8452-0.84193 1.3355-1.8871 1.7129-3.4839 1.5387-6.5613-0.75484-12.339-3.0484-17.071-7.7806-1.7129-1.6839-2.2064-3.4838-2.0903-5.9226 0.58064-11.148 3.2226-21.803 7.4322-32.081 0.58065-1.4226 1.3355-2.7871 1.9161-4.2097 0.40645-1.0161 1.1032-1.6839 2.0032-2.2645 4.4129-2.9323 9.1451-5.0516 14.4-5.9516 1.0742-0.17419 2.1484-0.31936 3.2516-0.37742 0.40645-0.0291 0.84193 0.29032 1.2194 0.60967-4.3548 1.4806-8.5645 3.0484-12.484 5.3419-1.5677 0.90001-3.0484 1.9742-4.5581 2.9613-0.31934 0.20322-0.60967 0.49353-0.98709 0.8129 18.61-8.8839 37.132-9.3193 55.684-0.23227-4.9645-4.0064-10.684-6.5032-16.694-8.4484 0.43549-0.90001 1.0452-1.1032 2.0032-1.0161 6.5032 0.60967 12.31 2.9903 17.594 6.7064 0.49356 0.34839 0.95806 0.84194 1.2484 1.3936 4.1226 8.3322 6.8806 17.071 8.4484 26.216 0.7258 4.2677 1.1032 8.5935 1.1903 12.919 0 0.55161-0.20322 1.2194-0.55161 1.6548-3.4838 4.529-8.1 7.3161-13.558 8.7387-2.0903 0.5516-4.2968 0.7258-6.4452 1.0161-0.34839 0.058-0.84194-0.058-1.0452-0.29032-1.4516-1.771-2.8161-3.4839-4.2968-5.3129zm-27.987-11.497c1.5677 0 2.9613-0.49356 4.1806-1.4806 2.0322-1.6548 2.7-3.8903 3.0194-6.4451 0.6387-5.371-5.429-9.2903-10.132-7.0839-3.3097 1.5677-5.0516 5.6032-4.0064 9.3774 0.92903 3.3968 3.6871 5.6322 6.9387 5.6322zm25.519 0.11612c0.81289-0.20322 1.6838-0.29032 2.4387-0.60968 4.7322-1.8871 6.2419-8.2161 2.9903-12.455-2.5839-3.3387-7.4032-3.6581-10.364-0.6387-1.9161 1.9452-2.4968 4.3258-2.2064 6.9968 0.46452 3.6581 3.6 6.5903 7.1419 6.7064z" opacity=".94" stroke-width=".29032"/><g transform="matrix(.65536 0 0 .65536 -151.61 294.55)"><path d="m37.164 60.964c-19.746 0.414-35.769 13.786-37.164 30.658h18.693l9e-3 -0.104c0.9-10.901 6.48-21.019 15.712-28.487 0.891-0.719 1.809-1.409 2.75-2.067m7.456-33.717c0-2.408 0.255-4.747 0.731-6.98-2.211-1.199-4.662-1.872-7.244-1.872-9.761 0-17.673 9.526-17.673 21.279 0 11.395 7.437 20.695 16.78 21.253 4.202-2.928 8.886-5.22 13.868-6.815 1.054-1.366 1.952-2.902 2.681-4.568-5.56-5.18-9.143-13.248-9.143-22.297m48.375-0.253c0-14.909-10.037-26.994-22.417-26.994-12.381 0-22.417 12.085-22.417 26.994 0 13.36 8.063 24.457 18.651 26.61-23.855 1.586-42.865 18.11-44.574 38.776h96.68c-1.71-20.666-20.719-37.19-44.576-38.775 10.588-2.154 18.653-13.248 18.653-26.611m27.725 13.442c0-11.753-7.912-21.28-17.674-21.28-2.583 0-5.031 0.676-7.243 1.872 0.479 2.233 0.729 4.573 0.729 6.98 0 9.05-3.582 17.117-9.144 22.293 0.726 1.666 1.627 3.202 2.678 4.571 4.984 1.596 9.667 3.888 13.868 6.813 9.351-0.555 16.786-9.856 16.786-21.249m20.436 51.947c-1.396-16.872-17.418-30.243-37.164-30.657 0.94 0.657 1.857 1.346 2.749 2.066 9.23 7.469 14.812 17.586 15.713 28.484l9e-3 0.104z"/></g><g transform="matrix(1.8 0 0 1.8 -307.09 271.66)"><path d="m47 11h-30c-3.86 0-7 3.14-7 7v8h10.04c0.51001-6.15 5.68-11 11.96-11s11.45 4.85 11.96 11h10.04v-8c0-3.86-3.14-7-7-7z"/><path d="m32 39c-6.28 0-11.45-4.85-11.96-11h-10.04v18c0 3.86 3.14 7 7 7h30c3.86 0 7-3.14 7-7v-18h-10.04c-0.51001 6.15-5.68 11-11.96 11zm9.88 10h-19.76c-0.54999 0-1-0.45001-1-1s0.45001-1 1-1h19.76c0.54999 0 1 0.45001 1 1s-0.45001 1-1 1zm0-5h-19.76c-0.54999 0-1-0.45001-1-1s0.45001-1 1-1h19.76c0.54999 0 1 0.45001 1 1s-0.45001 1-1 1z"/><path d="m32 37c5.5137 0 10-4.4863 10-10s-4.4863-10-10-10c-5.5142 0-10 4.4863-10 10s4.4858 10 10 10zm0-18c4.4111 0 8 3.5889 8 8 0 1.8772-0.65436 3.6019-1.741 4.9681-0.97626-1.9443-2.8239-3.3746-5.0345-3.7656 1.0449-0.46912 1.7756-1.5139 1.7756-2.7335 0-1.6569-1.3431-3-3-3s-3 1.3431-3 3c0 1.2196 0.73065 2.2643 1.7756 2.7335-2.2106 0.39099-4.0583 1.8213-5.0345 3.7656-1.0867-1.3662-1.741-3.0909-1.741-4.9681 0-4.4111 3.5889-8 8-8z"/></g><g transform="matrix(.89888 0 0 .89888 -449.93 128.42)" fill="none" stroke="#000" stroke-width="12.22"><g fill="none" stroke="#000" stroke-width="12.22">
	<g fill="none" stroke="#000" stroke-width="12.22">
		<g fill="none" stroke="#000" stroke-width="12.22">
			<g fill="none" stroke="#000" stroke-width="12.22">
				<path d="M 95.347,0 H 31.782 C 14.239,0 0,14.239 0,31.782 v 63.565 c 0,17.544 14.239,31.782 31.782,31.782 h 63.565 c 17.544,0 31.782,-14.239 31.782,-31.782 V 31.782 C 127.13,14.239 112.891,0 95.347,0 Z"/>
				<path d="m254.26 0h-63.565c-17.544 0-31.782 14.239-31.782 31.782v63.565c0 17.544 14.239 31.782 31.782 31.782h63.565c17.544 0 31.782-14.239 31.782-31.782v-63.565c0-17.543-14.238-31.782-31.782-31.782z"/>
				<path d="m413.17 0h-63.565c-17.544 0-31.783 14.239-31.783 31.782v63.565c0 17.544 14.239 31.782 31.783 31.782h63.565c17.544 0 31.783-14.239 31.783-31.782v-63.565c0-17.543-14.239-31.782-31.783-31.782z"/>
				<path d="m95.347 158.91h-63.565c-17.543 0-31.782 14.239-31.782 31.783v63.565c0 17.544 14.239 31.782 31.782 31.782h63.565c17.544 0 31.782-14.239 31.782-31.782v-63.565c1e-3 -17.544-14.238-31.783-31.782-31.783z"/>
				<path d="m254.26 158.91h-63.565c-17.544 0-31.782 14.239-31.782 31.782v63.565c0 17.544 14.239 31.782 31.782 31.782h63.565c17.544 0 31.782-14.239 31.782-31.782v-63.565c0-17.543-14.238-31.782-31.782-31.782z"/>
				<path d="m413.17 158.91h-63.565c-17.544 0-31.783 14.239-31.783 31.782v63.565c0 17.544 14.239 31.782 31.783 31.782h63.565c17.544 0 31.783-14.239 31.783-31.782v-63.565c0-17.543-14.239-31.782-31.783-31.782z"/>
				<path d="m95.347 317.82h-63.565c-17.543 0-31.782 14.238-31.782 31.782v63.565c0 17.544 14.239 31.783 31.782 31.783h63.565c17.544 0 31.782-14.239 31.782-31.783v-63.565c1e-3 -17.544-14.238-31.782-31.782-31.782z"/>
				<path d="m254.26 317.82h-63.565c-17.544 0-31.782 14.239-31.782 31.783v63.565c0 17.544 14.239 31.783 31.782 31.783h63.565c17.544 0 31.782-14.239 31.782-31.783v-63.565c0-17.545-14.238-31.783-31.782-31.783z"/>
				<path d="m413.17 317.82h-63.565c-17.544 0-31.783 14.239-31.783 31.783v63.565c0 17.544 14.239 31.783 31.783 31.783h63.565c17.544 0 31.783-14.239 31.783-31.783v-63.565c0-17.545-14.239-31.783-31.783-31.783z"/>
			</g>
		</g>
	</g>
</g></g></g><path d="m-385.13 722.53q1.3653 1.9456 0.6144 4.4032l-9.3867 30.925q-0.64852 2.1845-2.6112 3.6693-1.9627 1.4848-4.1813 1.4848h-31.505q-2.6283 0-5.0688-1.8261-2.4405-1.8261-3.3963-4.4885-0.8192-2.2869-0.0682-4.3349 0-0.13654 0.1024-0.9216 0.10239-0.78508 0.13653-1.2629 0.0342-0.27306-0.1024-0.73386-0.13653-0.4608-0.1024-0.6656 0.0682-0.37548 0.27307-0.7168 0.20479-0.34134 0.5632-0.80214 0.3584-0.4608 0.56319-0.80214 0.78507-1.2971 1.536-3.1232 0.75094-1.8261 1.024-3.1232 0.1024-0.34132 0.017-1.024-0.0853-0.68266-0.017-0.95573 0.1024-0.37547 0.58026-0.95573 0.47787-0.58027 0.58027-0.78507 0.7168-1.2288 1.4336-3.1403 0.7168-1.9115 0.85333-3.072 0.0342-0.3072-0.0853-1.0923-0.11947-0.78507 0.017-0.95574 0.13653-0.44373 0.75093-1.0411 0.6144-0.59734 0.75094-0.768 0.64853-0.88747 1.4507-2.8843t0.93867-3.2939q0.0342-0.27306-0.1024-0.8704-0.13653-0.59733-0.0682-0.90453 0.0682-0.27307 0.3072-0.6144 0.23893-0.34133 0.6144-0.78507 0.37546-0.44373 0.58026-0.7168 0.27307-0.4096 0.5632-1.0411 0.29014-0.63147 0.512-1.1947 0.22187-0.5632 0.54614-1.2288 0.32426-0.6656 0.6656-1.0923 0.34133-0.42666 0.90453-0.80213t1.2288-0.39253q0.6656-0.017 1.6213 0.18773l-0.0342 0.1024q1.2971-0.3072 1.7408-0.3072h25.975q2.5259 0 3.8912 1.9115 1.3653 1.9115 0.6144 4.4373l-9.3525 30.925q-1.2288 4.0619-2.4405 5.2395-1.2117 1.1776-4.3861 1.1776h-29.662q-0.9216 0-1.2971 0.512-0.37547 0.54614-0.0342 1.4677 0.8192 2.3893 4.9152 2.3893h31.505q0.98987 0 1.9115-0.52906t1.1947-1.4165l10.24-33.69q0.23894-0.75093 0.17067-1.9456 1.2971 0.512 2.0139 1.4677zm-36.318 0.0682q-0.13652 0.44374 0.0682 0.768 0.2048 0.32426 0.68267 0.32426h20.753q0.44374 0 0.8704-0.32426 0.42667-0.32426 0.5632-0.768l0.7168-2.1845q0.13654-0.44372-0.0682-0.768-0.2048-0.32426-0.68266-0.32426h-20.753q-0.44373 0-0.8704 0.32426-0.42667 0.32428-0.5632 0.768zm-2.8331 8.7381q-0.13654 0.44372 0.0682 0.768 0.2048 0.32426 0.68267 0.32426h20.753q0.44373 0 0.8704-0.32426 0.42666-0.32428 0.5632-0.768l0.7168-2.1845q0.13653-0.44374-0.0682-0.768-0.2048-0.32426-0.68268-0.32426h-20.753q-0.44374 0-0.8704 0.32426t-0.5632 0.768z" stroke-width=".034133"/><path d="m-289.93 808.93h-40.96c-2.816 0-5.12 2.304-5.12 5.12v25.6c0 1.792 1.024 3.584 2.56 4.352v0.768 20.48c0 2.816 2.304 5.12 5.12 5.12h35.84c2.816 0 5.12-2.304 5.12-5.12v-20.48-0.768c1.536-0.768 2.56-2.56 2.56-4.352v-25.6c0-2.816-2.304-5.12-5.12-5.12zm-12.8 5.12v23.04c-1.536 0-2.56 1.024-2.56 2.56v2.56h-10.24v-2.56c0-1.536-1.024-2.56-2.56-2.56v-23.04zm2.56 25.6v7.68h-2.56v-7.68zm-30.72 0v-23.04c0-1.536 1.024-2.56 2.56-2.56h7.68v23.04c-1.536 0-2.56 1.024-2.56 2.56v2.56h-5.12c-1.536 0-2.56-1.024-2.56-2.56zm12.8 0v7.68h-2.56v-7.68zm25.6 23.04c0 1.536-1.024 2.56-2.56 2.56h-30.72c-1.536 0-2.56-1.024-2.56-2.56v-2.56h35.84zm0-5.12h-35.84v-10.24c0-1.536 1.024-2.56 2.56-2.56h2.56v2.56c0 1.536 1.024 2.56 2.56 2.56h2.56c1.536 0 2.56-1.024 2.56-2.56v-2.56h10.24v2.56c0 1.536 1.024 2.56 2.56 2.56h2.56c1.536 0 2.56-1.024 2.56-2.56v-2.56h2.56c1.536 0 2.56 1.024 2.56 2.56zm2.56-17.92c0 1.536-1.024 2.56-2.56 2.56h-5.12v-2.56c0-1.536-1.024-2.56-2.56-2.56v-23.04h7.68c1.536 0 2.56 1.024 2.56 2.56z" stroke-width="2.56"/><g transform="matrix(.06912 0 0 .06912 -240.89 803.73)"><path d="m831.2 908.42h-662.31c-44.37 0-80.1-17.37-97.92-47.79-17.82-30.33-15.66-70.02 5.94-108.81l334.17-598.86c21.78-39.06 54.09-61.38 88.74-61.38s66.96 22.32 88.74 61.38l334.44 598.95c21.6 38.79 23.85 78.39 6.03 108.72-17.82 30.42-53.46 47.79-97.83 47.79zm-331.38-753.93c-10.98 0-23.58 10.89-33.84 29.16l-334.17 598.86c-10.44 18.81-12.96 35.64-6.66 46.35 6.3 10.62 22.23 16.74 43.65 16.74h662.4c21.51 0 37.44-6.03 43.65-16.74 6.21-10.62 3.78-27.54-6.66-46.26l-334.53-598.95c-10.17-18.27-22.86-29.16-33.84-29.16zm0.18 470.34c-17.37 0-31.41-14.04-31.41-31.41v-282.87c0-17.37 14.04-31.41 31.41-31.41s31.41 14.04 31.41 31.41v282.87c0 17.37-14.04 31.41-31.41 31.41zm-47.16 110.16c0 26.01 21.15 47.16 47.16 47.16s47.16-21.15 47.16-47.16-21.15-47.16-47.16-47.16-47.16 21.15-47.16 47.16z" stroke-width=".9"/></g></g><style type="text/css">
	.st0{fill:none;stroke:#000000;stroke-width:8;stroke-miterlimit:10;}
	.st1{display:none;}
	.st2{display:inline;opacity:0.25;fill:#F45EFD;}
</style><style type="text/css">
	.st0{fill:#1E1E1E;}
	.st1{fill:#464646;stroke:#21759B;stroke-width:2;stroke-miterlimit:10;}
	.st2{fill:#FFFFFF;}
</style></svg>
