<?xml version="1.0" encoding="UTF-8" standalone="no"?>
<!-- Generator: Adobe Illustrator 17.1.0, SVG Export Plug-In . SVG Version: 6.00 Build 0)  -->

<svg
   xmlns:dc="http://purl.org/dc/elements/1.1/"
   xmlns:cc="http://creativecommons.org/ns#"
   xmlns:rdf="http://www.w3.org/1999/02/22-rdf-syntax-ns#"
   xmlns:svg="http://www.w3.org/2000/svg"
   xmlns="http://www.w3.org/2000/svg"
   xmlns:sodipodi="http://sodipodi.sourceforge.net/DTD/sodipodi-0.dtd"
   xmlns:inkscape="http://www.inkscape.org/namespaces/inkscape"
   version="1.1"
   id="Capa_1"
   x="0px"
   y="0px"
   viewBox="0 0 438.828 438.828"
   style="enable-background:new 0 0 438.828 438.828;"
   xml:space="preserve"
   sodipodi:docname="ModuleLoader Logo.svg"
   inkscape:version="0.92.4 (5da689c313, 2019-01-14)"><metadata
   id="metadata939"><rdf:RDF><cc:Work
       rdf:about=""><dc:format>image/svg+xml</dc:format><dc:type
         rdf:resource="http://purl.org/dc/dcmitype/StillImage" /></cc:Work></rdf:RDF></metadata><defs
   id="defs937">
	

		
	
			
		</defs><sodipodi:namedview
   pagecolor="#ffffff"
   bordercolor="#666666"
   borderopacity="1"
   objecttolerance="10"
   gridtolerance="10"
   guidetolerance="10"
   inkscape:pageopacity="0"
   inkscape:pageshadow="2"
   inkscape:window-width="1920"
   inkscape:window-height="1017"
   id="namedview935"
   showgrid="false"
   inkscape:zoom="1.5211171"
   inkscape:cx="184.79608"
   inkscape:cy="219.24034"
   inkscape:window-x="-8"
   inkscape:window-y="-8"
   inkscape:window-maximized="1"
   inkscape:current-layer="g1575" />
<g
   id="g902"
   transform="matrix(0.9,0,0,0.9,21.94145,22.17065)">
	
	<path
   d="M 424.975,218.928 H 229.687 c -2.125,0 -3.854,-1.729 -3.854,-3.854 V 108.751 c 0,-7.639 -6.215,-13.854 -13.854,-13.854 h -73.546 c -6.688,0 -14.265,4.361 -17.623,10.146 l -48.946,84.312 c -1.863,3.21 -6.715,7.346 -10.179,8.677 L 11.47,217.333 C 5.038,219.806 0,227.14 0,234.031 v 74.998 c 0,7.639 6.215,13.853 13.854,13.853 h 26.419 c 7.003,21.769 27.439,37.569 51.504,37.569 24.065,0 44.502,-15.8 51.505,-37.569 h 123.513 c 7.004,21.769 27.441,37.569 51.507,37.569 24.064,0 44.5,-15.8 51.504,-37.569 h 55.169 c 7.639,0 13.854,-6.215 13.854,-13.853 v -76.247 c -0.001,-7.639 -6.216,-13.854 -13.854,-13.854 z M 91.776,332.852 c -14.635,0 -26.5,-11.866 -26.5,-26.5 0,-14.635 11.866,-26.498 26.5,-26.498 14.635,0 26.5,11.864 26.5,26.498 0,14.634 -11.865,26.5 -26.5,26.5 z M 196.935,201.458 c 0,2.103 -1.776,3.888 -3.879,3.898 l -97.63,0.497 c -0.169,0 -0.316,-0.009 -0.441,-0.023 0.048,-0.123 0.112,-0.266 0.197,-0.426 l 38.743,-73.349 c 1.402,-2.653 5.566,-5.163 8.568,-5.163 h 50.589 c 2.125,0 3.854,1.729 3.854,3.854 v 70.712 z m 121.367,131.394 c -14.635,0 -26.499,-11.866 -26.499,-26.5 0,-14.635 11.864,-26.498 26.499,-26.498 14.635,0 26.499,11.864 26.499,26.498 -10e-4,14.634 -11.864,26.5 -26.499,26.5 z"
   id="path900"
   inkscape:connector-curvature="0" />
</g>
<g
   id="g904">
</g>
<g
   id="g906">
</g>
<g
   id="g908">
</g>
<g
   id="g910">
</g>
<g
   id="g912">
</g>
<g
   id="g914">
</g>
<g
   id="g916">
</g>
<g
   id="g918">
</g>
<g
   id="g920">
</g>
<g
   id="g922">
</g>
<g
   id="g924">
</g>
<g
   id="g926">
</g>
<g
   id="g928">
</g>
<g
   id="g930">
</g>
<g
   id="g932">
</g>
<g
   id="g1575"
   transform="matrix(0.45,0,0,0.45,232.53537,13.951597)"><g
     id="g1502"
     transform="matrix(0.9,0,0,0.9,-2.9157489,46.167756)">
				
				
				
				<path
   inkscape:connector-curvature="0"
   style="fill:none;stroke:#000000;stroke-width:11.11111069;stroke-miterlimit:4;stroke-dasharray:none;stroke-opacity:1"
   d="M 95.347,158.912 H 31.782 C 14.239,158.912 0,173.151 0,190.695 v 63.565 c 0,17.544 14.239,31.782 31.782,31.782 h 63.565 c 17.544,0 31.782,-14.239 31.782,-31.782 v -63.565 c 10e-4,-17.544 -14.238,-31.783 -31.782,-31.783 z"
   id="path1490" />
				<path
   inkscape:connector-curvature="0"
   style="fill:none;stroke:#000000;stroke-width:11.11111069;stroke-miterlimit:4;stroke-dasharray:none;stroke-opacity:1"
   d="m 254.26,158.912 h -63.565 c -17.544,0 -31.782,14.239 -31.782,31.782 v 63.565 c 0,17.544 14.239,31.782 31.782,31.782 h 63.565 c 17.544,0 31.782,-14.239 31.782,-31.782 v -63.565 c 0,-17.543 -14.238,-31.782 -31.782,-31.782 z"
   id="path1492" />
				<path
   inkscape:connector-curvature="0"
   style="fill:none;stroke:#000000;stroke-width:11.11111069;stroke-miterlimit:4;stroke-dasharray:none;stroke-opacity:1"
   d="m 413.172,158.912 h -63.565 c -17.544,0 -31.783,14.239 -31.783,31.782 v 63.565 c 0,17.544 14.239,31.782 31.783,31.782 h 63.565 c 17.544,0 31.783,-14.239 31.783,-31.782 v -63.565 c 0,-17.543 -14.239,-31.782 -31.783,-31.782 z"
   id="path1494" />
				<path
   inkscape:connector-curvature="0"
   style="fill:none;stroke:#000000;stroke-width:11.11111069;stroke-miterlimit:4;stroke-dasharray:none;stroke-opacity:1"
   d="M 95.347,317.825 H 31.782 C 14.239,317.825 0,332.063 0,349.607 v 63.565 c 0,17.544 14.239,31.783 31.782,31.783 h 63.565 c 17.544,0 31.782,-14.239 31.782,-31.783 v -63.565 c 10e-4,-17.544 -14.238,-31.782 -31.782,-31.782 z"
   id="path1496" />
				<path
   inkscape:connector-curvature="0"
   style="fill:none;stroke:#000000;stroke-width:11.11111069;stroke-miterlimit:4;stroke-dasharray:none;stroke-opacity:1"
   d="m 254.26,317.825 h -63.565 c -17.544,0 -31.782,14.239 -31.782,31.783 v 63.565 c 0,17.544 14.239,31.783 31.782,31.783 h 63.565 c 17.544,0 31.782,-14.239 31.782,-31.783 v -63.565 c 0,-17.545 -14.238,-31.783 -31.782,-31.783 z"
   id="path1498" />
				<path
   inkscape:connector-curvature="0"
   style="fill:none;stroke:#000000;stroke-width:11.11111069;stroke-miterlimit:4;stroke-dasharray:none;stroke-opacity:1"
   d="m 413.172,317.825 h -63.565 c -17.544,0 -31.783,14.239 -31.783,31.783 v 63.565 c 0,17.544 14.239,31.783 31.783,31.783 h 63.565 c 17.544,0 31.783,-14.239 31.783,-31.783 v -63.565 c 0,-17.545 -14.239,-31.783 -31.783,-31.783 z"
   id="path1500" />
			</g><g
     id="g1510"
     transform="matrix(0.9,0,0,0.9,-2.9157489,46.167756)">
</g><g
     id="g1512"
     transform="matrix(0.9,0,0,0.9,-2.9157489,46.167756)">
</g><g
     id="g1514"
     transform="matrix(0.9,0,0,0.9,-2.9157489,46.167756)">
</g><g
     id="g1516"
     transform="matrix(0.9,0,0,0.9,-2.9157489,46.167756)">
</g><g
     id="g1518"
     transform="matrix(0.9,0,0,0.9,-2.9157489,46.167756)">
</g><g
     id="g1520"
     transform="matrix(0.9,0,0,0.9,-2.9157489,46.167756)">
</g><g
     id="g1522"
     transform="matrix(0.9,0,0,0.9,-2.9157489,46.167756)">
</g><g
     id="g1524"
     transform="matrix(0.9,0,0,0.9,-2.9157489,46.167756)">
</g><g
     id="g1526"
     transform="matrix(0.9,0,0,0.9,-2.9157489,46.167756)">
</g><g
     id="g1528"
     transform="matrix(0.9,0,0,0.9,-2.9157489,46.167756)">
</g><g
     id="g1530"
     transform="matrix(0.9,0,0,0.9,-2.9157489,46.167756)">
</g><g
     id="g1532"
     transform="matrix(0.9,0,0,0.9,-2.9157489,46.167756)">
</g><g
     id="g1534"
     transform="matrix(0.9,0,0,0.9,-2.9157489,46.167756)">
</g><g
     id="g1536"
     transform="matrix(0.9,0,0,0.9,-2.9157489,46.167756)">
</g><g
     id="g1538"
     transform="matrix(0.9,0,0,0.9,-2.9157489,46.167756)">
</g><g
     id="g1643"
     transform="matrix(0.75,0,0,0.74999999,5.9982846,197.08312)"><g
       id="_x31_2_3D_Printing" /><g
       id="_x31_1_VR_Gear" /><g
       id="_x31_0_Virtual_reality" /><g
       id="_x39__Augmented_reality" /><g
       id="_x38__Teleport"><g
         id="g1602"><rect
           id="rect1594"
           y="28"
           x="92"
           width="8"
           height="8" /><rect
           id="rect1596"
           y="16"
           x="28"
           width="8"
           height="8" /><rect
           id="rect1598"
           y="40"
           x="44"
           width="8"
           height="8" /><path
           id="path1600"
           d="M 112,40 V 75.2 C 108.7,72.9 104.7,71 100,69.4 V 44 H 92 V 67.1 C 83.3,65 73.6,64 64,64 60,64 56,64.2 52,64.5 V 56 h -8 v 9.5 c -2.7,0.4 -5.4,1 -8,1.6 V 32 H 28 V 69.4 C 23.3,71 19.3,72.9 16,75.2 V 56 H 8 v 32 c 0,15.6 28.9,24 56,24 27.1,0 56,-8.4 56,-24 V 40 Z M 16,88 C 16,83 26.3,76.5 44,73.6 v 28.9 C 26.3,99.5 16,93 16,88 Z m 72,13.7 V 80 h -8 v 23 c -4.9,0.6 -10.2,1 -16,1 -4.2,0 -8.2,-0.2 -12,-0.5 v -31 c 3.8,-0.3 7.8,-0.5 12,-0.5 29.7,0 48,9.3 48,16 0,4.6 -8.8,10.5 -24,13.7 z"
           inkscape:connector-curvature="0" /></g></g><g
       id="_x37__Glassess" /><g
       id="_x36__Folding_phone" /><g
       id="_x35__Drone" /><g
       id="_x34__Retina_scan" /><g
       id="_x33__Smartwatch" /><g
       id="_x32__Bionic_Arm" /><g
       id="_x31__Chip" /><g
       id="Guide"
       class="st1"
       style="display:none"><path
         id="path1612"
         d="M 120,8 V 120 H 8 V 8 h 112 m 8,-8 H 0 v 128 h 128 z"
         class="st2"
         inkscape:connector-curvature="0"
         style="display:inline;opacity:0.25;fill:#f45efd" /></g></g><path
     id="path1645"
     d="m 155.92732,263.00357 c 0,4.0158 3.25239,7.268 7.268,7.268 h 10.9026 v 11.2124 c 0,2.0174 1.6362,3.6336 3.63439,3.6336 1.01841,0 1.94281,-0.419 2.59781,-1.0896 l 13.756,-13.7562 h 39.9762 c 4.0156,0 7.26799,-3.2522 7.26799,-7.268 v -45.4276 c 0,-4.0158 -3.25239,-7.2682 -7.26799,-7.2682 h -70.86681 c -4.0158,0 -7.26799,3.2524 -7.26799,7.2682 v 45.4274 z m 21.8052,-20.8964 c 0,-2.5072 2.0354,-4.5426 4.5426,-4.5426 2.5072,0 4.5426,2.0354 4.5426,4.5426 0,2.5074 -2.0354,4.5426 -4.5426,4.5426 -2.5074,0 -4.5426,-2.0354 -4.5426,-4.5426 z m 16.3538,0 c 0,-2.5072 2.0354,-4.5426 4.5426,-4.5426 2.5074,0 4.543,2.0354 4.543,4.5426 0,2.5074 -2.0356,4.5426 -4.543,4.5426 -2.5072,0 -4.5426,-2.0354 -4.5426,-4.5426 z m 16.35379,0 c 0,-2.5072 2.0352,-4.5426 4.54301,-4.5426 2.5074,0 4.5422,2.0354 4.5422,4.5426 0,2.5074 -2.0348,4.5426 -4.5422,4.5426 -2.50801,0 -4.54301,-2.0354 -4.54301,-4.5426 z"
     inkscape:connector-curvature="0"
     style="clip-rule:evenodd;fill:#010101;fill-rule:evenodd;stroke-width:0.20000002" /><path
     id="path1670"
     d="m 16.58445,351.69789 v 12.8 c 0,0 0.190602,6.4 6.399999,6.4 6.209406,0 57.7125,0 64.000011,0 6.287489,0 6.399989,-6.4 6.399989,-6.4 v -12.8 c 0,0 -0.05004,-6.4 -6.399989,-6.4 -6.350007,0 -58.846809,0 -64.000011,0 -6.490593,0 -6.399999,6.4 -6.399999,6.4 z m 0,32 v 12.8 c 0,0 0.190602,6.4 6.399999,6.4 6.209406,0 57.7125,0 64.000011,0 6.287489,0 6.399989,-6.4 6.399989,-6.4 v -12.8 c 0,0 -0.05004,-6.4 -6.399989,-6.4 -6.350007,0 -58.846809,0 -64.000011,0 -6.490593,0 -6.399999,6.4 -6.399999,6.4 z m 0,32 v 12.8 c 0,0 0.190602,6.4 6.399999,6.4 6.209406,0 57.7125,0 64.000011,0 6.287489,0 6.399989,-6.4 6.399989,-6.4 v -12.8 c 0,0 -0.05004,-6.4 -6.399989,-6.4 -6.350007,0 -58.846809,0 -64.000011,0 -6.490593,0 -6.399999,6.4 -6.399999,6.4 z m 6.399999,-19.2 v -12.8 h 6.400008 v 12.8 z m 12.800007,0 v -12.8 h 6.399999 v 12.8 z m 12.799998,0 v -12.8 h 6.399999 v 12.8 z m 12.799998,0 v -12.8 h 6.399999 v 12.8 z m 19.199997,-6.4 v -6.4 h 6.400011 v 6.4 z m -57.6,-25.6 v -12.8 h 6.400008 v 12.8 z m 12.800007,0 v -12.8 h 6.399999 v 12.8 z m 12.799998,0 v -12.8 h 6.399999 v 12.8 z m 12.799998,0 v -12.8 h 6.399999 v 12.8 z m 19.199997,-6.4 v -6.4 h 6.400011 v 6.4 z m -57.6,70.4 v -12.8 h 6.400008 v 12.8 z m 12.800007,0 v -12.8 h 6.399999 v 12.8 z m 12.799998,0 v -12.8 h 6.399999 v 12.8 z m 12.799998,0 v -12.8 h 6.399999 v 12.8 z m 19.199997,-6.4 v -6.4 h 6.400011 v 6.4 z"
     inkscape:connector-curvature="0"
     style="stroke-width:0.10000001" /><path
     id="path1692-1"
     d="m 356.26613,269.79821 c 5.02257,-1.56775 9.26128,-4.00646 12.59998,-8.27419 -18.26126,10.53869 -36.29024,10.21933 -54.29021,0.20322 0.43548,1.13226 2.46773,3.22258 5.1387,4.81936 2.06128,1.21934 4.29676,2.20645 6.50321,3.30967 -0.20323,0.26128 -0.49355,0.66773 -0.8129,1.07418 -0.75484,0.95807 -1.62581,1.82903 -2.26452,2.84516 -0.84193,1.33548 -1.88709,1.71289 -3.48386,1.53871 -6.56127,-0.75484 -12.33869,-3.04838 -17.07093,-7.78064 -1.7129,-1.68386 -2.20645,-3.48385 -2.09032,-5.92257 0.58064,-11.14836 3.22257,-21.80317 7.43224,-32.08057 0.58065,-1.42258 1.33548,-2.78709 1.91613,-4.20967 0.40645,-1.01612 1.10322,-1.68387 2.00322,-2.26451 4.4129,-2.93226 9.14514,-5.0516 14.39997,-5.9516 1.07419,-0.17419 2.14838,-0.31936 3.25161,-0.37742 0.40645,-0.0291 0.84193,0.29032 1.21936,0.60967 -4.35483,1.48064 -8.56451,3.04839 -12.48386,5.34192 -1.56774,0.90001 -3.04838,1.9742 -4.55806,2.9613 -0.31934,0.20322 -0.60967,0.49353 -0.98709,0.8129 18.60964,-8.88386 37.13218,-9.31934 55.68376,-0.23227 -4.9645,-4.00644 -10.68384,-6.50321 -16.69352,-8.44836 0.43549,-0.90001 1.04517,-1.10323 2.00324,-1.01613 6.5032,0.60967 12.30965,2.99032 17.5935,6.70644 0.49356,0.34839 0.95806,0.84194 1.24839,1.39355 4.12257,8.33223 6.88063,17.07093 8.44837,26.21607 0.7258,4.26773 1.10324,8.59353 1.19031,12.91933 0,0.55161 -0.20322,1.21935 -0.55161,1.65484 -3.48385,4.52901 -8.09998,7.31612 -13.55802,8.73869 -2.09033,0.5516 -4.29677,0.7258 -6.44515,1.01612 -0.34839,0.058 -0.84194,-0.058 -1.04517,-0.29032 -1.45161,-1.77096 -2.81612,-3.48386 -4.29677,-5.31288 z m -27.98704,-11.49676 c 1.56774,0 2.96128,-0.49356 4.18064,-1.48065 2.03225,-1.65483 2.69999,-3.89031 3.01936,-6.44514 0.6387,-5.37096 -5.42903,-9.29031 -10.13225,-7.08386 -3.30967,1.56774 -5.0516,5.60321 -4.00644,9.3774 0.92903,3.39676 3.68709,5.63225 6.93869,5.63225 z m 25.51932,0.11612 c 0.81289,-0.20322 1.68385,-0.29032 2.43869,-0.60968 4.73225,-1.88708 6.24193,-8.2161 2.99032,-12.45481 -2.58386,-3.3387 -7.40321,-3.65806 -10.3645,-0.6387 -1.91612,1.94515 -2.49677,4.3258 -2.20645,6.99675 0.46452,3.65807 3.59999,6.59032 7.14194,6.70644 z"
     class="st2"
     inkscape:connector-curvature="0"
     style="opacity:0.93999999;fill:#000000;fill-opacity:1;stroke-width:0.29032204" /><g
     id="g1803"
     transform="matrix(0.65536001,0,0,0.65536001,295.69056,355.49714)"><g
       id="Livello_98"><path
         id="path1789"
         d="M 37.164,60.964 C 17.418,61.378 1.395,74.75 0,91.622 h 18.693 l 0.009,-0.104 c 0.9,-10.901 6.48,-21.019 15.712,-28.487 0.891,-0.719 1.809,-1.409 2.75,-2.067 M 44.62,27.247 c 0,-2.408 0.255,-4.747 0.731,-6.98 -2.211,-1.199 -4.662,-1.872 -7.244,-1.872 -9.761,0 -17.673,9.526 -17.673,21.279 0,11.395 7.437,20.695 16.78,21.253 4.202,-2.928 8.886,-5.22 13.868,-6.815 1.054,-1.366 1.952,-2.902 2.681,-4.568 C 48.203,44.364 44.62,36.296 44.62,27.247 M 92.995,26.994 C 92.995,12.085 82.958,0 70.578,0 58.197,0 48.161,12.085 48.161,26.994 c 0,13.36 8.063,24.457 18.651,26.61 C 42.957,55.19 23.947,71.714 22.238,92.38 h 96.68 C 117.208,71.714 98.199,55.19 74.342,53.605 84.93,51.451 92.995,40.357 92.995,26.994 m 27.725,13.442 c 0,-11.753 -7.912,-21.28 -17.674,-21.28 -2.583,0 -5.031,0.676 -7.243,1.872 0.479,2.233 0.729,4.573 0.729,6.98 0,9.05 -3.582,17.117 -9.144,22.293 0.726,1.666 1.627,3.202 2.678,4.571 4.984,1.596 9.667,3.888 13.868,6.813 9.351,-0.555 16.786,-9.856 16.786,-21.249 m 20.436,51.947 C 139.76,75.511 123.738,62.14 103.992,61.726 c 0.94,0.657 1.857,1.346 2.749,2.066 9.23,7.469 14.812,17.586 15.713,28.484 l 0.009,0.104 z"
         inkscape:connector-curvature="0" /></g><g
       id="Livello_1_1_" /></g><g
     id="g1909"
     transform="matrix(1.8,0,0,1.8,140.20707,332.60673)"><g
       id="_x31_-Call" /><g
       id="_x32_-24_Hours_Call" /><g
       id="_x33_-Sending_Call" /><g
       id="_x34_-Incoming_Call" /><g
       id="_x35_-Talk_On_Phone" /><g
       id="_x36_-Block_Call" /><g
       id="_x37_-Hold_Call" /><g
       id="_x38_-Mute_Call" /><g
       id="_x39_-Phone_Book" /><g
       id="_x31_0-Add_Contact" /><g
       id="_x31_1-Delete_Contact" /><g
       id="_x31_2-Mail" /><g
       id="_x31_3-Message_Read" /><g
       id="_x31_4-Email" /><g
       id="_x31_5-Send_Mail" /><g
       id="_x31_6-Important_Mail" /><g
       id="_x31_7-Mail_Chain" /><g
       id="_x31_8-Messaging" /><g
       id="_x31_9-Sending" /><g
       id="_x32_0-Chat" /><g
       id="_x32_1-Mail_Attachment" /><g
       id="_x32_2-Mobile_Link" /><g
       id="_x32_3-Smartphone" /><g
       id="_x32_4-Social_Media" /><g
       id="_x32_5-Support" /><g
       id="_x32_6-Links" /><g
       id="_x32_7-Phone" /><g
       id="_x32_8-Phone-2" /><g
       id="_x32_9-Map" /><g
       id="_x33_0-Location" /><g
       id="_x33_1-Write" /><g
       id="_x33_2-World" /><g
       id="_x33_3-Home" /><g
       id="_x33_4-Calendar" /><g
       id="_x33_5-Website" /><g
       id="_x33_6-Info" /><g
       id="_x33_7-Bull_Horn" /><g
       id="_x33_8-Profile"><g
         id="g1848"><path
           id="path1842"
           d="M 47,11 H 17 c -3.859985,0 -7,3.140015 -7,7 v 8 H 20.039978 C 20.549988,19.849976 25.719971,15 32,15 c 6.280029,0 11.450012,4.849976 11.960022,11 H 54 v -8 c 0,-3.859985 -3.140015,-7 -7,-7 z"
           inkscape:connector-curvature="0" /><path
           id="path1844"
           d="M 32,39 C 25.719971,39 20.549988,34.149963 20.039978,28 H 10 v 18 c 0,3.859985 3.140015,7 7,7 h 30 c 3.859985,0 7,-3.140015 7,-7 V 28 H 43.960022 C 43.450012,34.149963 38.280029,39 32,39 Z m 9.880005,10 h -19.76001 c -0.549988,0 -1,-0.450012 -1,-1 0,-0.549988 0.450012,-1 1,-1 h 19.76001 c 0.549988,0 1,0.450012 1,1 0,0.549988 -0.450012,1 -1,1 z m 0,-5 h -19.76001 c -0.549988,0 -1,-0.450012 -1,-1 0,-0.549988 0.450012,-1 1,-1 h 19.76001 c 0.549988,0 1,0.450012 1,1 0,0.549988 -0.450012,1 -1,1 z"
           inkscape:connector-curvature="0" /><path
           id="path1846"
           d="m 32,37 c 5.513672,0 10,-4.486328 10,-10 0,-5.513672 -4.486328,-10 -10,-10 -5.51416,0 -10,4.486328 -10,10 0,5.513672 4.48584,10 10,10 z m 0,-18 c 4.411133,0 8,3.588867 8,8 0,1.877197 -0.654358,3.601929 -1.741028,4.968079 C 37.282715,30.023743 35.435059,28.593445 33.224426,28.202454 34.269348,27.733337 35,26.688599 35,25.468994 c 0,-1.65686 -1.34314,-3 -3,-3 -1.65686,0 -3,1.34314 -3,3 0,1.219605 0.730652,2.264343 1.775574,2.73346 -2.210633,0.390991 -4.058289,1.821289 -5.034546,3.765625 C 24.654358,30.601929 24,28.877197 24,27 c 0,-4.411133 3.588867,-8 8,-8 z"
           inkscape:connector-curvature="0" /></g></g><g
       id="_x33_9-Quote__x26__Answer" /><g
       id="_x34_0-Notification" /><g
       id="_x34_1-Share" /><g
       id="_x34_2-Time" /></g><path
     id="path1911"
     d="m -106.85889,359.47273 c -4.62525,0 -6.82049,3.26582 -7.59496,6.70638 -2.7721,12.40261 -14.55209,31.26857 -37.97491,31.26857 -5.74971,0 -11.18768,-1.30627 -16.05596,-3.59997 l 4.01007,-3.99501 c 2.7267,-2.61266 4.45058,-4.21521 4.45058,-7.59499 0,-3.97216 -3.32646,-7.59497 -7.59491,-7.59497 h -22.78476 c -4.62558,0 -7.59528,3.73674 -7.59528,7.59497 v 22.78501 c 0,4.1089 3.25064,7.59499 7.59528,7.59499 3.67583,0 5.22507,-2.07342 7.59494,-4.51141 l 3.09853,-3.09119 c 7.97497,4.80765 17.2938,7.6026 27.28151,7.6026 37.89901,0 53.164771,-36.07626 53.164771,-45.09907 0,-5.51399 -4.032941,-8.06591 -7.594901,-8.06591 z m -83.54485,-6.70637 c 2.77218,-12.39508 14.55177,-31.26862 37.97498,-31.26862 5.74932,0 11.18729,1.29877 16.0555,3.59242 l -4.01,4.00259 c -2.7267,2.61269 -4.45064,4.21524 -4.45064,7.59501 0,3.97216 3.32651,7.59497 7.59495,7.59497 h 22.78509 c 4.62524,0 7.5949,-3.73674 7.5949,-7.59497 v -22.78501 c 0,-4.10889 -3.2506,-7.59499 -7.5949,-7.59499 -3.67614,0 -5.22539,2.07338 -7.59495,4.51141 l -3.09885,3.09118 c -7.97464,-4.80764 -17.29381,-7.60259 -27.28125,-7.60259 -37.89895,0 -53.16501,36.0762 -53.16501,45.09905 0,5.51401 4.03294,8.06592 7.59486,8.06592 4.6256,0 6.82051,-3.26581 7.59532,-6.70637 z"
     inkscape:connector-curvature="0"
     style="fill:#000000;fill-opacity:1;stroke-width:7.59499693" /><text
     xml:space="preserve"
     style="font-style:normal;font-variant:normal;font-weight:normal;font-stretch:normal;font-size:80px;line-height:1.25;font-family:sans-serif;-inkscape-font-specification:sans-serif;letter-spacing:0px;word-spacing:0px;fill:#000000;fill-opacity:1;stroke:none;stroke-width:1.99999988"
     x="-312.79028"
     y="556.80725"
     id="text1923"><tspan
       sodipodi:role="line"
       id="tspan1921"
       x="-312.79028"
       y="556.80725"
       style="font-style:normal;font-variant:normal;font-weight:normal;font-stretch:normal;font-family:sans-serif;-inkscape-font-specification:sans-serif;fill:#ffffff;fill-opacity:1;stroke-width:1.99999988">ModuleLoader</tspan></text>
</g><style
   id="style1588"
   type="text/css">
	.st0{fill:none;stroke:#000000;stroke-width:8;stroke-miterlimit:10;}
	.st1{display:none;}
	.st2{display:inline;opacity:0.25;fill:#F45EFD;}
</style><style
   id="style1681"
   type="text/css">
	.st0{fill:#1E1E1E;}
	.st1{fill:#464646;stroke:#21759B;stroke-width:2;stroke-miterlimit:10;}
	.st2{fill:#FFFFFF;}
</style></svg>