<?xml version="1.0" encoding="UTF-8" standalone="no"?>
<!-- Generator: Adobe Illustrator 17.1.0, SVG Export Plug-In . SVG Version: 6.00 Build 0)  -->

<svg
   xmlns:dc="http://purl.org/dc/elements/1.1/"
   xmlns:cc="http://creativecommons.org/ns#"
   xmlns:rdf="http://www.w3.org/1999/02/22-rdf-syntax-ns#"
   xmlns:svg="http://www.w3.org/2000/svg"
   xmlns="http://www.w3.org/2000/svg"
   xmlns:sodipodi="http://sodipodi.sourceforge.net/DTD/sodipodi-0.dtd"
   xmlns:inkscape="http://www.inkscape.org/namespaces/inkscape"
   version="1.1"
   id="Capa_1"
   x="0px"
   y="0px"
   viewBox="0 0 184.92599 184.92599"
   xml:space="preserve"
   sodipodi:docname="Modules Logo.svg"
   inkscape:version="0.92.4 (5da689c313, 2019-01-14)"
   width="184.92599"
   height="184.92599"><metadata
   id="metadata939"><rdf:RDF><cc:Work
       rdf:about=""><dc:format>image/svg+xml</dc:format><dc:type
         rdf:resource="http://purl.org/dc/dcmitype/StillImage" /><dc:title /></cc:Work></rdf:RDF></metadata><defs
   id="defs937">
	

		
	
			
		</defs><sodipodi:namedview
   pagecolor="#ffffff"
   bordercolor="#666666"
   borderopacity="1"
   objecttolerance="10"
   gridtolerance="10"
   guidetolerance="10"
   inkscape:pageopacity="0"
   inkscape:pageshadow="2"
   inkscape:window-width="1920"
   inkscape:window-height="1017"
   id="namedview935"
   showgrid="false"
   inkscape:zoom="4.3023689"
   inkscape:cx="148.8592"
   inkscape:cy="89.927073"
   inkscape:window-x="-8"
   inkscape:window-y="-8"
   inkscape:window-maximized="1"
   inkscape:current-layer="g9892" />

<g
   id="g904"
   transform="translate(0,-253.902)">
</g>
<g
   id="g906"
   transform="translate(0,-253.902)">
</g>
<g
   id="g908"
   transform="translate(0,-253.902)">
</g>
<g
   id="g910"
   transform="translate(0,-253.902)">
</g>
<g
   id="g912"
   transform="translate(0,-253.902)">
</g>
<g
   id="g914"
   transform="translate(0,-253.902)">
</g>
<g
   id="g916"
   transform="translate(0,-253.902)">
</g>
<g
   id="g918"
   transform="translate(0,-253.902)">
</g>
<g
   id="g920"
   transform="translate(0,-253.902)">
</g>
<g
   id="g922"
   transform="translate(0,-253.902)">
</g>
<g
   id="g924"
   transform="translate(0,-253.902)">
</g>
<g
   id="g926"
   transform="translate(0,-253.902)">
</g>
<g
   id="g928"
   transform="translate(0,-253.902)">
</g>
<g
   id="g930"
   transform="translate(0,-253.902)">
</g>
<g
   id="g932"
   transform="translate(0,-253.902)">
</g>
<g
   id="g1575"
   transform="matrix(0.45,0,0,0.45,232.07051,-239.02069)">
<g
   id="g9683"
   transform="matrix(0.72,0,0,0.72,-130.27545,500.18178)"
   style="opacity:0.98000004"><g
     transform="matrix(0.9,0,0,0.9,-2.9157489,46.167756)"
     id="g1510">
</g><g
     transform="matrix(0.9,0,0,0.9,-2.9157489,46.167756)"
     id="g1512">
</g><g
     transform="matrix(0.9,0,0,0.9,-2.9157489,46.167756)"
     id="g1514">
</g><g
     transform="matrix(0.9,0,0,0.9,-2.9157489,46.167756)"
     id="g1516">
</g><g
     transform="matrix(0.9,0,0,0.9,-2.9157489,46.167756)"
     id="g1518">
</g><g
     transform="matrix(0.9,0,0,0.9,-2.9157489,46.167756)"
     id="g1520">
</g><g
     transform="matrix(0.9,0,0,0.9,-2.9157489,46.167756)"
     id="g1522">
</g><g
     transform="matrix(0.9,0,0,0.9,-2.9157489,46.167756)"
     id="g1524">
</g><g
     transform="matrix(0.9,0,0,0.9,-2.9157489,46.167756)"
     id="g1526">
</g><g
     transform="matrix(0.9,0,0,0.9,-2.9157489,46.167756)"
     id="g1528">
</g><g
     transform="matrix(0.9,0,0,0.9,-2.9157489,46.167756)"
     id="g1530">
</g><g
     transform="matrix(0.9,0,0,0.9,-2.9157489,46.167756)"
     id="g1532">
</g><g
     transform="matrix(0.9,0,0,0.9,-2.9157489,46.167756)"
     id="g1534">
</g><g
     transform="matrix(0.9,0,0,0.9,-2.9157489,46.167756)"
     id="g1536">
</g><g
     transform="matrix(0.9,0,0,0.9,-2.9157489,46.167756)"
     id="g1538">
</g><g
     transform="matrix(0.75,0,0,0.74999999,-441.30052,136.13478)"
     id="g1643"><g
       id="_x31_2_3D_Printing" /><g
       id="_x31_1_VR_Gear" /><g
       id="_x31_0_Virtual_reality" /><g
       id="_x39__Augmented_reality" /><g
       id="_x38__Teleport"><g
         id="g1602"><rect
           height="8"
           width="8"
           x="92"
           y="28"
           id="rect1594" /><rect
           height="8"
           width="8"
           x="28"
           y="16"
           id="rect1596" /><rect
           height="8"
           width="8"
           x="44"
           y="40"
           id="rect1598" /><path
           inkscape:connector-curvature="0"
           d="M 112,40 V 75.2 C 108.7,72.9 104.7,71 100,69.4 V 44 H 92 V 67.1 C 83.3,65 73.6,64 64,64 60,64 56,64.2 52,64.5 V 56 h -8 v 9.5 c -2.7,0.4 -5.4,1 -8,1.6 V 32 H 28 V 69.4 C 23.3,71 19.3,72.9 16,75.2 V 56 H 8 v 32 c 0,15.6 28.9,24 56,24 27.1,0 56,-8.4 56,-24 V 40 Z M 16,88 C 16,83 26.3,76.5 44,73.6 v 28.9 C 26.3,99.5 16,93 16,88 Z m 72,13.7 V 80 h -8 v 23 c -4.9,0.6 -10.2,1 -16,1 -4.2,0 -8.2,-0.2 -12,-0.5 v -31 c 3.8,-0.3 7.8,-0.5 12,-0.5 29.7,0 48,9.3 48,16 0,4.6 -8.8,10.5 -24,13.7 z"
           id="path1600" /></g></g><g
       id="_x37__Glassess" /><g
       id="_x36__Folding_phone" /><g
       id="_x35__Drone" /><g
       id="_x34__Retina_scan" /><g
       id="_x33__Smartwatch" /><g
       id="_x32__Bionic_Arm" /><g
       id="_x31__Chip" /><g
       style="display:none;fill:#464646;stroke:#21759b;stroke-width:2;stroke-miterlimit:10"
       class="st1"
       id="Guide"><path
         style="display:inline;opacity:0.25;fill:#f45efd"
         inkscape:connector-curvature="0"
         class="st2"
         d="M 120,8 V 120 H 8 V 8 h 112 m 8,-8 H 0 v 128 h 128 z"
         id="path1612" /></g></g><path
     style="clip-rule:evenodd;fill:#010101;fill-rule:evenodd;stroke-width:0.20000002"
     inkscape:connector-curvature="0"
     d="m -291.37148,202.05523 c 0,4.0158 3.25239,7.268 7.268,7.268 h 10.9026 v 11.2124 c 0,2.0174 1.6362,3.6336 3.63439,3.6336 1.01841,0 1.94281,-0.419 2.59781,-1.0896 l 13.756,-13.7562 h 39.9762 c 4.0156,0 7.26799,-3.2522 7.26799,-7.268 v -45.4276 c 0,-4.0158 -3.25239,-7.2682 -7.26799,-7.2682 h -70.86681 c -4.0158,0 -7.26799,3.2524 -7.26799,7.2682 v 45.4274 z m 21.8052,-20.8964 c 0,-2.5072 2.0354,-4.5426 4.5426,-4.5426 2.5072,0 4.5426,2.0354 4.5426,4.5426 0,2.5074 -2.0354,4.5426 -4.5426,4.5426 -2.5074,0 -4.5426,-2.0354 -4.5426,-4.5426 z m 16.3538,0 c 0,-2.5072 2.0354,-4.5426 4.5426,-4.5426 2.5074,0 4.543,2.0354 4.543,4.5426 0,2.5074 -2.0356,4.5426 -4.543,4.5426 -2.5072,0 -4.5426,-2.0354 -4.5426,-4.5426 z m 16.35379,0 c 0,-2.5072 2.0352,-4.5426 4.54301,-4.5426 2.5074,0 4.5422,2.0354 4.5422,4.5426 0,2.5074 -2.0348,4.5426 -4.5422,4.5426 -2.50801,0 -4.54301,-2.0354 -4.54301,-4.5426 z"
     id="path1645" /><path
     style="stroke-width:0.10000001"
     inkscape:connector-curvature="0"
     d="m -430.71435,433.18873 v 12.8 c 0,0 0.1906,6.4 6.4,6.4 6.2094,0 57.7125,0 64.00001,0 6.28749,0 6.39999,-6.4 6.39999,-6.4 v -12.8 c 0,0 -0.05,-6.4 -6.39999,-6.4 -6.35001,0 -58.84681,0 -64.00001,0 -6.4906,0 -6.4,6.4 -6.4,6.4 z m 0,32 v 12.8 c 0,0 0.1906,6.4 6.4,6.4 6.2094,0 57.7125,0 64.00001,0 6.28749,0 6.39999,-6.4 6.39999,-6.4 v -12.8 c 0,0 -0.05,-6.4 -6.39999,-6.4 -6.35001,0 -58.84681,0 -64.00001,0 -6.4906,0 -6.4,6.4 -6.4,6.4 z m 0,32 v 12.8 c 0,0 0.1906,6.4 6.4,6.4 6.2094,0 57.7125,0 64.00001,0 6.28749,0 6.39999,-6.4 6.39999,-6.4 v -12.8 c 0,0 -0.05,-6.4 -6.39999,-6.4 -6.35001,0 -58.84681,0 -64.00001,0 -6.4906,0 -6.4,6.4 -6.4,6.4 z m 6.4,-19.2 v -12.8 h 6.4 v 12.8 z m 12.8,0 v -12.8 h 6.4 v 12.8 z m 12.8,0 v -12.8 h 6.4 v 12.8 z m 12.8,0 v -12.8 h 6.4 v 12.8 z m 19.2,-6.4 v -6.4 h 6.40001 v 6.4 z m -57.6,-25.6 v -12.8 h 6.4 v 12.8 z m 12.8,0 v -12.8 h 6.4 v 12.8 z m 12.8,0 v -12.8 h 6.4 v 12.8 z m 12.8,0 v -12.8 h 6.4 v 12.8 z m 19.2,-6.4 v -6.4 h 6.40001 v 6.4 z m -57.6,70.4 v -12.8 h 6.4 v 12.8 z m 12.8,0 v -12.8 h 6.4 v 12.8 z m 12.8,0 v -12.8 h 6.4 v 12.8 z m 12.8,0 v -12.8 h 6.4 v 12.8 z m 19.2,-6.4 v -6.4 h 6.40001 v 6.4 z"
     id="path1670" /><path
     style="opacity:0.93999999;fill:#000000;fill-opacity:1;stroke-width:0.29032204"
     inkscape:connector-curvature="0"
     class="st2"
     d="m -91.032673,208.84987 c 5.02257,-1.56775 9.26128,-4.00646 12.59998,-8.27419 -18.26126,10.53869 -36.290237,10.21933 -54.290207,0.20322 0.43548,1.13226 2.46773,3.22258 5.1387,4.81936 2.06128,1.21934 4.29676,2.20645 6.50321,3.30967 -0.20323,0.26128 -0.49355,0.66773 -0.8129,1.07418 -0.75484,0.95807 -1.62581,1.82903 -2.26452,2.84516 -0.84193,1.33548 -1.88709,1.71289 -3.48386,1.53871 -6.56127,-0.75484 -12.33869,-3.04838 -17.07093,-7.78064 -1.7129,-1.68386 -2.20645,-3.48385 -2.09032,-5.92257 0.58064,-11.14836 3.22257,-21.80317 7.43224,-32.08057 0.58065,-1.42258 1.33548,-2.78709 1.91613,-4.20967 0.40645,-1.01612 1.10322,-1.68387 2.00322,-2.26451 4.4129,-2.93226 9.14514,-5.0516 14.39997,-5.9516 1.07419,-0.17419 2.14838,-0.31936 3.25161,-0.37742 0.40645,-0.0291 0.84193,0.29032 1.21936,0.60967 -4.35483,1.48064 -8.56451,3.04839 -12.48386,5.34192 -1.56774,0.90001 -3.04838,1.9742 -4.55806,2.9613 -0.31934,0.20322 -0.60967,0.49353 -0.98709,0.8129 18.60964,-8.88386 37.132177,-9.31934 55.683757,-0.23227 -4.9645,-4.00644 -10.68384,-6.50321 -16.69352,-8.44836 0.43549,-0.90001 1.04517,-1.10323 2.00324,-1.01613 6.5032,0.60967 12.30965,2.99032 17.5935,6.70644 0.49356,0.34839 0.95806,0.84194 1.24839,1.39355 4.12257,8.33223 6.88063,17.07093 8.44837,26.21607 0.7258,4.26773 1.10324,8.59353 1.19031,12.91933 0,0.55161 -0.20322,1.21935 -0.55161,1.65484 -3.48385,4.52901 -8.09998,7.31612 -13.55802,8.73869 -2.09033,0.5516 -4.29677,0.7258 -6.44515,1.01612 -0.34839,0.058 -0.84194,-0.058 -1.04517,-0.29032 -1.45161,-1.77096 -2.81612,-3.48386 -4.29677,-5.31288 z m -27.987037,-11.49676 c 1.56774,0 2.96128,-0.49356 4.18064,-1.48065 2.03225,-1.65483 2.69999,-3.89031 3.01936,-6.44514 0.6387,-5.37096 -5.42903,-9.29031 -10.13225,-7.08386 -3.30967,1.56774 -5.0516,5.60321 -4.00644,9.3774 0.92903,3.39676 3.68709,5.63225 6.93869,5.63225 z m 25.519317,0.11612 c 0.81289,-0.20322 1.68385,-0.29032 2.43869,-0.60968 4.73225,-1.88708 6.24193,-8.2161 2.99032,-12.45481 -2.58386,-3.3387 -7.40321,-3.65806 -10.3645,-0.6387 -1.916117,1.94515 -2.496767,4.3258 -2.206447,6.99675 0.46452,3.65807 3.599987,6.59032 7.141937,6.70644 z"
     id="path1692-1" /><g
     transform="matrix(0.65536001,0,0,0.65536001,-151.60824,294.5488)"
     id="g1803"><g
       id="Livello_98"><path
         inkscape:connector-curvature="0"
         d="M 37.164,60.964 C 17.418,61.378 1.395,74.75 0,91.622 h 18.693 l 0.009,-0.104 c 0.9,-10.901 6.48,-21.019 15.712,-28.487 0.891,-0.719 1.809,-1.409 2.75,-2.067 M 44.62,27.247 c 0,-2.408 0.255,-4.747 0.731,-6.98 -2.211,-1.199 -4.662,-1.872 -7.244,-1.872 -9.761,0 -17.673,9.526 -17.673,21.279 0,11.395 7.437,20.695 16.78,21.253 4.202,-2.928 8.886,-5.22 13.868,-6.815 1.054,-1.366 1.952,-2.902 2.681,-4.568 C 48.203,44.364 44.62,36.296 44.62,27.247 M 92.995,26.994 C 92.995,12.085 82.958,0 70.578,0 58.197,0 48.161,12.085 48.161,26.994 c 0,13.36 8.063,24.457 18.651,26.61 C 42.957,55.19 23.947,71.714 22.238,92.38 h 96.68 C 117.208,71.714 98.199,55.19 74.342,53.605 84.93,51.451 92.995,40.357 92.995,26.994 m 27.725,13.442 c 0,-11.753 -7.912,-21.28 -17.674,-21.28 -2.583,0 -5.031,0.676 -7.243,1.872 0.479,2.233 0.729,4.573 0.729,6.98 0,9.05 -3.582,17.117 -9.144,22.293 0.726,1.666 1.627,3.202 2.678,4.571 4.984,1.596 9.667,3.888 13.868,6.813 9.351,-0.555 16.786,-9.856 16.786,-21.249 m 20.436,51.947 C 139.76,75.511 123.738,62.14 103.992,61.726 c 0.94,0.657 1.857,1.346 2.749,2.066 9.23,7.469 14.812,17.586 15.713,28.484 l 0.009,0.104 z"
         id="path1789" /></g><g
       id="Livello_1_1_" /></g><g
     transform="matrix(1.8,0,0,1.8,-307.09173,271.65839)"
     id="g1909"><g
       id="_x31_-Call" /><g
       id="_x32_-24_Hours_Call" /><g
       id="_x33_-Sending_Call" /><g
       id="_x34_-Incoming_Call" /><g
       id="_x35_-Talk_On_Phone" /><g
       id="_x36_-Block_Call" /><g
       id="_x37_-Hold_Call" /><g
       id="_x38_-Mute_Call" /><g
       id="_x39_-Phone_Book" /><g
       id="_x31_0-Add_Contact" /><g
       id="_x31_1-Delete_Contact" /><g
       id="_x31_2-Mail" /><g
       id="_x31_3-Message_Read" /><g
       id="_x31_4-Email" /><g
       id="_x31_5-Send_Mail" /><g
       id="_x31_6-Important_Mail" /><g
       id="_x31_7-Mail_Chain" /><g
       id="_x31_8-Messaging" /><g
       id="_x31_9-Sending" /><g
       id="_x32_0-Chat" /><g
       id="_x32_1-Mail_Attachment" /><g
       id="_x32_2-Mobile_Link" /><g
       id="_x32_3-Smartphone" /><g
       id="_x32_4-Social_Media" /><g
       id="_x32_5-Support" /><g
       id="_x32_6-Links" /><g
       id="_x32_7-Phone" /><g
       id="_x32_8-Phone-2" /><g
       id="_x32_9-Map" /><g
       id="_x33_0-Location" /><g
       id="_x33_1-Write" /><g
       id="_x33_2-World" /><g
       id="_x33_3-Home" /><g
       id="_x33_4-Calendar" /><g
       id="_x33_5-Website" /><g
       id="_x33_6-Info" /><g
       id="_x33_7-Bull_Horn" /><g
       id="_x33_8-Profile"><g
         id="g1848"><path
           inkscape:connector-curvature="0"
           d="M 47,11 H 17 c -3.859985,0 -7,3.140015 -7,7 v 8 H 20.039978 C 20.549988,19.849976 25.719971,15 32,15 c 6.280029,0 11.450012,4.849976 11.960022,11 H 54 v -8 c 0,-3.859985 -3.140015,-7 -7,-7 z"
           id="path1842" /><path
           inkscape:connector-curvature="0"
           d="M 32,39 C 25.719971,39 20.549988,34.149963 20.039978,28 H 10 v 18 c 0,3.859985 3.140015,7 7,7 h 30 c 3.859985,0 7,-3.140015 7,-7 V 28 H 43.960022 C 43.450012,34.149963 38.280029,39 32,39 Z m 9.880005,10 h -19.76001 c -0.549988,0 -1,-0.450012 -1,-1 0,-0.549988 0.450012,-1 1,-1 h 19.76001 c 0.549988,0 1,0.450012 1,1 0,0.549988 -0.450012,1 -1,1 z m 0,-5 h -19.76001 c -0.549988,0 -1,-0.450012 -1,-1 0,-0.549988 0.450012,-1 1,-1 h 19.76001 c 0.549988,0 1,0.450012 1,1 0,0.549988 -0.450012,1 -1,1 z"
           id="path1844" /><path
           inkscape:connector-curvature="0"
           d="m 32,37 c 5.513672,0 10,-4.486328 10,-10 0,-5.513672 -4.486328,-10 -10,-10 -5.51416,0 -10,4.486328 -10,10 0,5.513672 4.48584,10 10,10 z m 0,-18 c 4.411133,0 8,3.588867 8,8 0,1.877197 -0.654358,3.601929 -1.741028,4.968079 C 37.282715,30.023743 35.435059,28.593445 33.224426,28.202454 34.269348,27.733337 35,26.688599 35,25.468994 c 0,-1.65686 -1.34314,-3 -3,-3 -1.65686,0 -3,1.34314 -3,3 0,1.219605 0.730652,2.264343 1.775574,2.73346 -2.210633,0.390991 -4.058289,1.821289 -5.034546,3.765625 C 24.654358,30.601929 24,28.877197 24,27 c 0,-4.411133 3.588867,-8 8,-8 z"
           id="path1846" /></g></g><g
       id="_x33_9-Quote__x26__Answer" /><g
       id="_x34_0-Notification" /><g
       id="_x34_1-Share" /><g
       id="_x34_2-Time" /></g><g
     style="fill:none;fill-opacity:0.30456854;stroke:#000000;stroke-width:12.21978188;stroke-miterlimit:4;stroke-dasharray:none;stroke-opacity:1"
     transform="matrix(0.89888291,0,0,0.8988829,-449.93052,128.41864)"
     id="g8795"><g
       style="fill:none;fill-opacity:0.30456854;stroke:#000000;stroke-width:12.21978188;stroke-miterlimit:4;stroke-dasharray:none;stroke-opacity:1"
       id="g8728">
	<g
   style="fill:none;fill-opacity:0.30456854;stroke:#000000;stroke-width:12.21978188;stroke-miterlimit:4;stroke-dasharray:none;stroke-opacity:1"
   id="g8726">
		<g
   style="fill:none;fill-opacity:0.30456854;stroke:#000000;stroke-width:12.21978188;stroke-miterlimit:4;stroke-dasharray:none;stroke-opacity:1"
   id="g8724">
			<g
   style="fill:none;fill-opacity:0.30456854;stroke:#000000;stroke-width:12.21978188;stroke-miterlimit:4;stroke-dasharray:none;stroke-opacity:1"
   id="g8722">
				<path
   inkscape:connector-curvature="0"
   style="fill:none;fill-opacity:0.30456854;stroke:#000000;stroke-width:12.21978188;stroke-miterlimit:4;stroke-dasharray:none;stroke-opacity:1"
   d="M 95.347,0 H 31.782 C 14.239,0 0,14.239 0,31.782 v 63.565 c 0,17.544 14.239,31.782 31.782,31.782 h 63.565 c 17.544,0 31.782,-14.239 31.782,-31.782 V 31.782 C 127.13,14.239 112.891,0 95.347,0 Z"
   id="path8704" />
				<path
   inkscape:connector-curvature="0"
   style="fill:none;fill-opacity:0.30456854;stroke:#000000;stroke-width:12.21978188;stroke-miterlimit:4;stroke-dasharray:none;stroke-opacity:1"
   d="m 254.26,0 h -63.565 c -17.544,0 -31.782,14.239 -31.782,31.782 v 63.565 c 0,17.544 14.239,31.782 31.782,31.782 h 63.565 c 17.544,0 31.782,-14.239 31.782,-31.782 V 31.782 C 286.042,14.239 271.804,0 254.26,0 Z"
   id="path8706" />
				<path
   inkscape:connector-curvature="0"
   style="fill:none;fill-opacity:0.30456854;stroke:#000000;stroke-width:12.21978188;stroke-miterlimit:4;stroke-dasharray:none;stroke-opacity:1"
   d="m 413.172,0 h -63.565 c -17.544,0 -31.783,14.239 -31.783,31.782 v 63.565 c 0,17.544 14.239,31.782 31.783,31.782 h 63.565 c 17.544,0 31.783,-14.239 31.783,-31.782 V 31.782 C 444.955,14.239 430.716,0 413.172,0 Z"
   id="path8708" />
				<path
   inkscape:connector-curvature="0"
   style="fill:none;fill-opacity:0.30456854;stroke:#000000;stroke-width:12.21978188;stroke-miterlimit:4;stroke-dasharray:none;stroke-opacity:1"
   d="M 95.347,158.912 H 31.782 C 14.239,158.912 0,173.151 0,190.695 v 63.565 c 0,17.544 14.239,31.782 31.782,31.782 h 63.565 c 17.544,0 31.782,-14.239 31.782,-31.782 v -63.565 c 10e-4,-17.544 -14.238,-31.783 -31.782,-31.783 z"
   id="path8710" />
				<path
   inkscape:connector-curvature="0"
   style="fill:none;fill-opacity:0.30456854;stroke:#000000;stroke-width:12.21978188;stroke-miterlimit:4;stroke-dasharray:none;stroke-opacity:1"
   d="m 254.26,158.912 h -63.565 c -17.544,0 -31.782,14.239 -31.782,31.782 v 63.565 c 0,17.544 14.239,31.782 31.782,31.782 h 63.565 c 17.544,0 31.782,-14.239 31.782,-31.782 v -63.565 c 0,-17.543 -14.238,-31.782 -31.782,-31.782 z"
   id="path8712" />
				<path
   inkscape:connector-curvature="0"
   style="fill:none;fill-opacity:0.30456854;stroke:#000000;stroke-width:12.21978188;stroke-miterlimit:4;stroke-dasharray:none;stroke-opacity:1"
   d="m 413.172,158.912 h -63.565 c -17.544,0 -31.783,14.239 -31.783,31.782 v 63.565 c 0,17.544 14.239,31.782 31.783,31.782 h 63.565 c 17.544,0 31.783,-14.239 31.783,-31.782 v -63.565 c 0,-17.543 -14.239,-31.782 -31.783,-31.782 z"
   id="path8714" />
				<path
   inkscape:connector-curvature="0"
   style="fill:none;fill-opacity:0.30456854;stroke:#000000;stroke-width:12.21978188;stroke-miterlimit:4;stroke-dasharray:none;stroke-opacity:1"
   d="M 95.347,317.825 H 31.782 C 14.239,317.825 0,332.063 0,349.607 v 63.565 c 0,17.544 14.239,31.783 31.782,31.783 h 63.565 c 17.544,0 31.782,-14.239 31.782,-31.783 v -63.565 c 10e-4,-17.544 -14.238,-31.782 -31.782,-31.782 z"
   id="path8716" />
				<path
   inkscape:connector-curvature="0"
   style="fill:none;fill-opacity:0.30456854;stroke:#000000;stroke-width:12.21978188;stroke-miterlimit:4;stroke-dasharray:none;stroke-opacity:1"
   d="m 254.26,317.825 h -63.565 c -17.544,0 -31.782,14.239 -31.782,31.783 v 63.565 c 0,17.544 14.239,31.783 31.782,31.783 h 63.565 c 17.544,0 31.782,-14.239 31.782,-31.783 v -63.565 c 0,-17.545 -14.238,-31.783 -31.782,-31.783 z"
   id="path8718" />
				<path
   inkscape:connector-curvature="0"
   style="fill:none;fill-opacity:0.30456854;stroke:#000000;stroke-width:12.21978188;stroke-miterlimit:4;stroke-dasharray:none;stroke-opacity:1"
   d="m 413.172,317.825 h -63.565 c -17.544,0 -31.783,14.239 -31.783,31.783 v 63.565 c 0,17.544 14.239,31.783 31.783,31.783 h 63.565 c 17.544,0 31.783,-14.239 31.783,-31.783 v -63.565 c 0,-17.545 -14.239,-31.783 -31.783,-31.783 z"
   id="path8720" />
			</g>
		</g>
	</g>
</g><g
       style="fill:none;fill-opacity:0.30456854;stroke:#000000;stroke-width:12.21978188;stroke-miterlimit:4;stroke-dasharray:none;stroke-opacity:1"
       id="g8730">
</g><g
       style="fill:none;fill-opacity:0.30456854;stroke:#000000;stroke-width:12.21978188;stroke-miterlimit:4;stroke-dasharray:none;stroke-opacity:1"
       id="g8732">
</g><g
       style="fill:none;fill-opacity:0.30456854;stroke:#000000;stroke-width:12.21978188;stroke-miterlimit:4;stroke-dasharray:none;stroke-opacity:1"
       id="g8734">
</g><g
       style="fill:none;fill-opacity:0.30456854;stroke:#000000;stroke-width:12.21978188;stroke-miterlimit:4;stroke-dasharray:none;stroke-opacity:1"
       id="g8736">
</g><g
       style="fill:none;fill-opacity:0.30456854;stroke:#000000;stroke-width:12.21978188;stroke-miterlimit:4;stroke-dasharray:none;stroke-opacity:1"
       id="g8738">
</g><g
       style="fill:none;fill-opacity:0.30456854;stroke:#000000;stroke-width:12.21978188;stroke-miterlimit:4;stroke-dasharray:none;stroke-opacity:1"
       id="g8740">
</g><g
       style="fill:none;fill-opacity:0.30456854;stroke:#000000;stroke-width:12.21978188;stroke-miterlimit:4;stroke-dasharray:none;stroke-opacity:1"
       id="g8742">
</g><g
       style="fill:none;fill-opacity:0.30456854;stroke:#000000;stroke-width:12.21978188;stroke-miterlimit:4;stroke-dasharray:none;stroke-opacity:1"
       id="g8744">
</g><g
       style="fill:none;fill-opacity:0.30456854;stroke:#000000;stroke-width:12.21978188;stroke-miterlimit:4;stroke-dasharray:none;stroke-opacity:1"
       id="g8746">
</g><g
       style="fill:none;fill-opacity:0.30456854;stroke:#000000;stroke-width:12.21978188;stroke-miterlimit:4;stroke-dasharray:none;stroke-opacity:1"
       id="g8748">
</g><g
       style="fill:none;fill-opacity:0.30456854;stroke:#000000;stroke-width:12.21978188;stroke-miterlimit:4;stroke-dasharray:none;stroke-opacity:1"
       id="g8750">
</g><g
       style="fill:none;fill-opacity:0.30456854;stroke:#000000;stroke-width:12.21978188;stroke-miterlimit:4;stroke-dasharray:none;stroke-opacity:1"
       id="g8752">
</g><g
       style="fill:none;fill-opacity:0.30456854;stroke:#000000;stroke-width:12.21978188;stroke-miterlimit:4;stroke-dasharray:none;stroke-opacity:1"
       id="g8754">
</g><g
       style="fill:none;fill-opacity:0.30456854;stroke:#000000;stroke-width:12.21978188;stroke-miterlimit:4;stroke-dasharray:none;stroke-opacity:1"
       id="g8756">
</g><g
       style="fill:none;fill-opacity:0.30456854;stroke:#000000;stroke-width:12.21978188;stroke-miterlimit:4;stroke-dasharray:none;stroke-opacity:1"
       id="g8758">
</g></g></g><path
   id="path9727"
   d="m -385.13405,722.53448 q 1.36532,1.9456 0.6144,4.4032 l -9.38668,30.9248 q -0.64852,2.18454 -2.6112,3.66934 -1.96266,1.4848 -4.18132,1.4848 h -31.50508 q -2.62826,0 -5.0688,-1.82614 -2.44052,-1.82614 -3.39626,-4.48854 -0.8192,-2.28692 -0.0682,-4.33492 0,-0.13654 0.1024,-0.9216 0.10239,-0.78508 0.13653,-1.26294 0.0342,-0.27306 -0.1024,-0.73386 -0.13653,-0.4608 -0.1024,-0.6656 0.0682,-0.37548 0.27307,-0.7168 0.20479,-0.34134 0.5632,-0.80214 0.3584,-0.4608 0.56319,-0.80214 0.78507,-1.29706 1.536,-3.1232 0.75094,-1.82612 1.02401,-3.1232 0.1024,-0.34132 0.017,-1.024 -0.0853,-0.68266 -0.017,-0.95573 0.1024,-0.37547 0.58026,-0.95573 0.47787,-0.58027 0.58027,-0.78507 0.7168,-1.2288 1.4336,-3.14027 0.7168,-1.91146 0.85333,-3.072 0.0342,-0.3072 -0.0853,-1.09226 -0.11947,-0.78507 0.017,-0.95574 0.13653,-0.44373 0.75093,-1.04106 0.6144,-0.59734 0.75094,-0.768 0.64853,-0.88747 1.45066,-2.88427 0.80213,-1.9968 0.93867,-3.29387 0.0342,-0.27306 -0.1024,-0.8704 -0.13653,-0.59733 -0.0682,-0.90453 0.0682,-0.27307 0.3072,-0.6144 0.23893,-0.34133 0.6144,-0.78507 0.37546,-0.44373 0.58026,-0.7168 0.27307,-0.4096 0.5632,-1.04106 0.29014,-0.63147 0.512,-1.19467 0.22187,-0.5632 0.54614,-1.2288 0.32426,-0.6656 0.6656,-1.09227 0.34133,-0.42666 0.90453,-0.80213 0.5632,-0.37547 1.2288,-0.39253 0.6656,-0.017 1.62133,0.18773 l -0.0342,0.1024 q 1.29707,-0.3072 1.7408,-0.3072 h 25.97547 q 2.52587,0 3.8912,1.91147 1.36533,1.91146 0.6144,4.43733 l -9.35253,30.92481 q -1.2288,4.06186 -2.44054,5.23946 -1.21173,1.1776 -4.38613,1.1776 h -29.66187 q -0.9216,0 -1.29706,0.512 -0.37547,0.54614 -0.0342,1.46774 0.8192,2.38932 4.9152,2.38932 h 31.50507 q 0.98987,0 1.91147,-0.52906 0.9216,-0.52906 1.19466,-1.41654 l 10.24,-33.6896 q 0.23894,-0.75093 0.17067,-1.9456 1.29707,0.512 2.01387,1.46774 z m -36.31788,0.0682 q -0.13652,0.44374 0.0682,0.768 0.2048,0.32426 0.68267,0.32426 h 20.75306 q 0.44374,0 0.8704,-0.32426 0.42667,-0.32426 0.5632,-0.768 l 0.7168,-2.18454 q 0.13654,-0.44372 -0.0682,-0.768 -0.2048,-0.32426 -0.68266,-0.32426 h -20.75307 q -0.44373,0 -0.8704,0.32426 -0.42667,0.32428 -0.5632,0.768 z m -2.83306,8.73814 q -0.13654,0.44372 0.0682,0.768 0.2048,0.32426 0.68267,0.32426 h 20.75307 q 0.44373,0 0.8704,-0.32426 0.42666,-0.32428 0.5632,-0.768 l 0.7168,-2.18454 q 0.13653,-0.44374 -0.0682,-0.768 -0.2048,-0.32426 -0.68268,-0.32426 h -20.75306 q -0.44374,0 -0.8704,0.32426 -0.42666,0.32426 -0.5632,0.768 z"
   inkscape:connector-curvature="0"
   style="stroke-width:0.03413334" /><path
   id="path9738"
   d="m -289.93077,808.93058 h -40.96002 c -2.81598,0 -5.11998,2.304 -5.11998,5.12 v 25.6 c 0,1.792 1.02399,3.584 2.55999,4.352 0,0.256 0,0.51201 0,0.768 v 20.48001 c 0,2.81599 2.304,5.11999 5.12001,5.11999 h 35.83999 c 2.816,0 5.12,-2.304 5.12,-5.11999 v -20.48001 c 0,-0.25599 0,-0.512 0,-0.768 1.53601,-0.768 2.55999,-2.56 2.55999,-4.352 v -25.6 c 0,-2.816 -2.304,-5.12 -5.11998,-5.12 z m -12.80001,5.12 v 23.04 c -1.53599,0 -2.55999,1.024 -2.55999,2.56 v 2.56001 h -10.24001 v -2.56001 c 0,-1.536 -1.024,-2.56 -2.55999,-2.56 v -23.04 z m 2.56,25.6 v 7.68 h -2.56 v -7.68 z m -30.72001,0 v -23.04 c 0,-1.536 1.02401,-2.56 2.56002,-2.56 h 7.67999 v 23.04 c -1.53599,0 -2.56,1.024 -2.56,2.56 v 2.56001 h -5.11999 c -1.53601,0 -2.56002,-1.02401 -2.56002,-2.56001 z m 12.80002,0 v 7.68 h -2.56001 v -7.68 z m 25.59999,23.04 c 0,1.536 -1.024,2.56001 -2.55999,2.56001 h -30.72001 c -1.53599,0 -2.55999,-1.02401 -2.55999,-2.56001 v -2.56 h 35.83999 z m 0,-5.12 h -35.83999 v -10.24 c 0,-1.536 1.024,-2.56 2.55999,-2.56 h 2.56 v 2.56 c 0,1.536 1.02401,2.56 2.56,2.56 h 2.56001 c 1.53599,0 2.55999,-1.024 2.55999,-2.56 v -2.56 h 10.24001 v 2.56 c 0,1.536 1.024,2.56 2.55999,2.56 h 2.56 c 1.53599,0 2.56,-1.024 2.56,-2.56 v -2.56 h 2.56001 c 1.53599,0 2.55999,1.024 2.55999,2.56 z m 2.56001,-17.92 c 0,1.536 -1.02401,2.56001 -2.56001,2.56001 h -5.12 v -2.56001 c 0,-1.536 -1.02401,-2.56 -2.56,-2.56 v -23.04 h 7.68 c 1.536,0 2.56001,1.024 2.56001,2.56 z"
   inkscape:connector-curvature="0"
   style="stroke-width:2.55999994" /><g
   id="g9892"
   transform="matrix(0.06912,0,0,0.06912,-240.88603,803.7309)"><path
     id="path9890"
     d="m 831.19789,908.42 h -662.31 c -44.37,0 -80.100002,-17.37 -97.920002,-47.79 -17.82,-30.33 -15.66,-70.02 5.94,-108.81 L 411.07789,152.96 c 21.78,-39.06 54.09,-61.38 88.74,-61.38 34.65,0 66.96,22.32 88.74,61.38 l 334.44,598.95 c 21.6,38.79 23.85,78.39 6.03,108.72 -17.82,30.42 -53.46,47.79 -97.83,47.79 z m -331.38,-753.93 c -10.98,0 -23.58,10.89 -33.84,29.16 l -334.17,598.86 c -10.44,18.81 -12.96,35.64 -6.66,46.35 6.3,10.62 22.23,16.74 43.65,16.74 h 662.4 c 21.51,0 37.44,-6.03 43.65,-16.74 6.21,-10.62 3.78,-27.54 -6.66,-46.26 l -334.53,-598.95 c -10.17,-18.27 -22.86,-29.16 -33.84,-29.16 z m 0.18,470.34 c -17.37,0 -31.41,-14.04 -31.41,-31.41 V 310.55 c 0,-17.37 14.04,-31.41 31.41,-31.41 17.37,0 31.41,14.04 31.41,31.41 v 282.87 c 0,17.37 -14.04,31.41 -31.41,31.41 z m -47.16,110.16 c 0,26.01 21.15,47.16 47.16,47.16 26.01,0 47.16,-21.15 47.16,-47.16 0,-26.01 -21.15,-47.16 -47.16,-47.16 -26.01,0 -47.16,21.15 -47.16,47.16 z"
     inkscape:connector-curvature="0"
     style="stroke-width:0.89999998" /></g></g><style
   id="style1588"
   type="text/css">
	.st0{fill:none;stroke:#000000;stroke-width:8;stroke-miterlimit:10;}
	.st1{display:none;}
	.st2{display:inline;opacity:0.25;fill:#F45EFD;}
</style><style
   id="style1681"
   type="text/css">
	.st0{fill:#1E1E1E;}
	.st1{fill:#464646;stroke:#21759B;stroke-width:2;stroke-miterlimit:10;}
	.st2{fill:#FFFFFF;}
</style></svg>