<?xml version="1.0" encoding="UTF-8"?>
<svg enable-background="new 0 0 438.828 438.828" version="1.1" viewBox="0 0 438.828 438.828" xml:space="preserve" xmlns="http://www.w3.org/2000/svg" xmlns:cc="http://creativecommons.org/ns#" xmlns:dc="http://purl.org/dc/elements/1.1/" xmlns:rdf="http://www.w3.org/1999/02/22-rdf-syntax-ns#"><metadata><rdf:RDF><cc:Work rdf:about=""><dc:format>image/svg+xml</dc:format><dc:type rdf:resource="http://purl.org/dc/dcmitype/StillImage"/></cc:Work></rdf:RDF></metadata>
<g transform="matrix(.9 0 0 .9 21.941 22.171)">
	<path d="m424.98 218.93h-195.29c-2.125 0-3.854-1.729-3.854-3.854v-106.32c0-7.639-6.215-13.854-13.854-13.854h-73.546c-6.688 0-14.265 4.361-17.623 10.146l-48.946 84.312c-1.863 3.21-6.715 7.346-10.179 8.677l-50.215 19.301c-6.432 2.473-11.47 9.807-11.47 16.698v74.998c0 7.639 6.215 13.853 13.854 13.853h26.419c7.003 21.769 27.439 37.569 51.504 37.569s44.502-15.8 51.505-37.569h123.51c7.004 21.769 27.441 37.569 51.507 37.569 24.064 0 44.5-15.8 51.504-37.569h55.169c7.639 0 13.854-6.215 13.854-13.853v-76.247c-1e-3 -7.639-6.216-13.854-13.854-13.854zm-333.2 113.92c-14.635 0-26.5-11.866-26.5-26.5 0-14.635 11.866-26.498 26.5-26.498 14.635 0 26.5 11.864 26.5 26.498s-11.865 26.5-26.5 26.5zm105.16-131.39c0 2.103-1.776 3.888-3.879 3.898l-97.63 0.497c-0.169 0-0.316-9e-3 -0.441-0.023 0.048-0.123 0.112-0.266 0.197-0.426l38.743-73.349c1.402-2.653 5.566-5.163 8.568-5.163h50.589c2.125 0 3.854 1.729 3.854 3.854v70.712zm121.37 131.39c-14.635 0-26.499-11.866-26.499-26.5 0-14.635 11.864-26.498 26.499-26.498s26.499 11.864 26.499 26.498c-1e-3 14.634-11.864 26.5-26.499 26.5z"/>
</g>
<g transform="matrix(.45 0 0 .45 232.54 13.952)"><g transform="matrix(.9 0 0 .9 -2.9157 46.168)" fill="none" stroke="#000" stroke-width="11.111">
				<path d="m95.347 158.91h-63.565c-17.543 0-31.782 14.239-31.782 31.783v63.565c0 17.544 14.239 31.782 31.782 31.782h63.565c17.544 0 31.782-14.239 31.782-31.782v-63.565c1e-3 -17.544-14.238-31.783-31.782-31.783z"/>
				<path d="m254.26 158.91h-63.565c-17.544 0-31.782 14.239-31.782 31.782v63.565c0 17.544 14.239 31.782 31.782 31.782h63.565c17.544 0 31.782-14.239 31.782-31.782v-63.565c0-17.543-14.238-31.782-31.782-31.782z"/>
				<path d="m413.17 158.91h-63.565c-17.544 0-31.783 14.239-31.783 31.782v63.565c0 17.544 14.239 31.782 31.783 31.782h63.565c17.544 0 31.783-14.239 31.783-31.782v-63.565c0-17.543-14.239-31.782-31.783-31.782z"/>
				<path d="m95.347 317.82h-63.565c-17.543 0-31.782 14.238-31.782 31.782v63.565c0 17.544 14.239 31.783 31.782 31.783h63.565c17.544 0 31.782-14.239 31.782-31.783v-63.565c1e-3 -17.544-14.238-31.782-31.782-31.782z"/>
				<path d="m254.26 317.82h-63.565c-17.544 0-31.782 14.239-31.782 31.783v63.565c0 17.544 14.239 31.783 31.782 31.783h63.565c17.544 0 31.782-14.239 31.782-31.783v-63.565c0-17.545-14.238-31.783-31.782-31.783z"/>
				<path d="m413.17 317.82h-63.565c-17.544 0-31.783 14.239-31.783 31.783v63.565c0 17.544 14.239 31.783 31.783 31.783h63.565c17.544 0 31.783-14.239 31.783-31.783v-63.565c0-17.545-14.239-31.783-31.783-31.783z"/>
			</g><g transform="matrix(.75 0 0 .75 5.9983 197.08)"><rect x="92" y="28" width="8" height="8"/><rect x="28" y="16" width="8" height="8"/><rect x="44" y="40" width="8" height="8"/><path d="m112 40v35.2c-3.3-2.3-7.3-4.2-12-5.8v-25.4h-8v23.1c-8.7-2.1-18.4-3.1-28-3.1-4 0-8 0.2-12 0.5v-8.5h-8v9.5c-2.7 0.4-5.4 1-8 1.6v-35.1h-8v37.4c-4.7 1.6-8.7 3.5-12 5.8v-19.2h-8v32c0 15.6 28.9 24 56 24s56-8.4 56-24v-48zm-96 48c0-5 10.3-11.5 28-14.4v28.9c-17.7-3-28-9.5-28-14.5zm72 13.7v-21.7h-8v23c-4.9 0.6-10.2 1-16 1-4.2 0-8.2-0.2-12-0.5v-31c3.8-0.3 7.8-0.5 12-0.5 29.7 0 48 9.3 48 16 0 4.6-8.8 10.5-24 13.7z"/><g class="st1" display="none"><path class="st2" d="m120 8v112h-112v-112h112m8-8h-128v128h128z" display="inline" fill="#f45efd" opacity=".25"/></g></g><path d="m155.93 263c0 4.0158 3.2524 7.268 7.268 7.268h10.903v11.212c0 2.0174 1.6362 3.6336 3.6344 3.6336 1.0184 0 1.9428-0.419 2.5978-1.0896l13.756-13.756h39.976c4.0156 0 7.268-3.2522 7.268-7.268v-45.428c0-4.0158-3.2524-7.2682-7.268-7.2682h-70.867c-4.0158 0-7.268 3.2524-7.268 7.2682v45.427zm21.805-20.896c0-2.5072 2.0354-4.5426 4.5426-4.5426s4.5426 2.0354 4.5426 4.5426c0 2.5074-2.0354 4.5426-4.5426 4.5426-2.5074 0-4.5426-2.0354-4.5426-4.5426zm16.354 0c0-2.5072 2.0354-4.5426 4.5426-4.5426 2.5074 0 4.543 2.0354 4.543 4.5426 0 2.5074-2.0356 4.5426-4.543 4.5426-2.5072 0-4.5426-2.0354-4.5426-4.5426zm16.354 0c0-2.5072 2.0352-4.5426 4.543-4.5426 2.5074 0 4.5422 2.0354 4.5422 4.5426 0 2.5074-2.0348 4.5426-4.5422 4.5426-2.508 0-4.543-2.0354-4.543-4.5426z" clip-rule="evenodd" fill="#010101" fill-rule="evenodd" stroke-width=".2"/><path d="m16.584 351.7v12.8s0.1906 6.4 6.4 6.4h64c6.2875 0 6.4-6.4 6.4-6.4v-12.8s-0.05004-6.4-6.4-6.4h-64c-6.4906 0-6.4 6.4-6.4 6.4zm0 32v12.8s0.1906 6.4 6.4 6.4h64c6.2875 0 6.4-6.4 6.4-6.4v-12.8s-0.05004-6.4-6.4-6.4h-64c-6.4906 0-6.4 6.4-6.4 6.4zm0 32v12.8s0.1906 6.4 6.4 6.4h64c6.2875 0 6.4-6.4 6.4-6.4v-12.8s-0.05004-6.4-6.4-6.4h-64c-6.4906 0-6.4 6.4-6.4 6.4zm6.4-19.2v-12.8h6.4v12.8zm12.8 0v-12.8h6.4v12.8zm12.8 0v-12.8h6.4v12.8zm12.8 0v-12.8h6.4v12.8zm19.2-6.4v-6.4h6.4v6.4zm-57.6-25.6v-12.8h6.4v12.8zm12.8 0v-12.8h6.4v12.8zm12.8 0v-12.8h6.4v12.8zm12.8 0v-12.8h6.4v12.8zm19.2-6.4v-6.4h6.4v6.4zm-57.6 70.4v-12.8h6.4v12.8zm12.8 0v-12.8h6.4v12.8zm12.8 0v-12.8h6.4v12.8zm12.8 0v-12.8h6.4v12.8zm19.2-6.4v-6.4h6.4v6.4z" stroke-width=".1"/><path class="st2" d="m356.27 269.8c5.0226-1.5678 9.2613-4.0065 12.6-8.2742-18.261 10.539-36.29 10.219-54.29 0.20322 0.43548 1.1323 2.4677 3.2226 5.1387 4.8194 2.0613 1.2193 4.2968 2.2064 6.5032 3.3097-0.20323 0.26128-0.49355 0.66773-0.8129 1.0742-0.75484 0.95807-1.6258 1.829-2.2645 2.8452-0.84193 1.3355-1.8871 1.7129-3.4839 1.5387-6.5613-0.75484-12.339-3.0484-17.071-7.7806-1.7129-1.6839-2.2064-3.4838-2.0903-5.9226 0.58064-11.148 3.2226-21.803 7.4322-32.081 0.58065-1.4226 1.3355-2.7871 1.9161-4.2097 0.40645-1.0161 1.1032-1.6839 2.0032-2.2645 4.4129-2.9323 9.1451-5.0516 14.4-5.9516 1.0742-0.17419 2.1484-0.31936 3.2516-0.37742 0.40645-0.0291 0.84193 0.29032 1.2194 0.60967-4.3548 1.4806-8.5645 3.0484-12.484 5.3419-1.5677 0.90001-3.0484 1.9742-4.5581 2.9613-0.31934 0.20322-0.60967 0.49353-0.98709 0.8129 18.61-8.8839 37.132-9.3193 55.684-0.23227-4.9645-4.0064-10.684-6.5032-16.694-8.4484 0.43549-0.90001 1.0452-1.1032 2.0032-1.0161 6.5032 0.60967 12.31 2.9903 17.594 6.7064 0.49356 0.34839 0.95806 0.84194 1.2484 1.3936 4.1226 8.3322 6.8806 17.071 8.4484 26.216 0.7258 4.2677 1.1032 8.5935 1.1903 12.919 0 0.55161-0.20322 1.2194-0.55161 1.6548-3.4838 4.529-8.1 7.3161-13.558 8.7387-2.0903 0.5516-4.2968 0.7258-6.4452 1.0161-0.34839 0.058-0.84194-0.058-1.0452-0.29032-1.4516-1.771-2.8161-3.4839-4.2968-5.3129zm-27.987-11.497c1.5677 0 2.9613-0.49356 4.1806-1.4806 2.0322-1.6548 2.7-3.8903 3.0194-6.4451 0.6387-5.371-5.429-9.2903-10.132-7.0839-3.3097 1.5677-5.0516 5.6032-4.0064 9.3774 0.92903 3.3968 3.6871 5.6322 6.9387 5.6322zm25.519 0.11612c0.81289-0.20322 1.6838-0.29032 2.4387-0.60968 4.7322-1.8871 6.2419-8.2161 2.9903-12.455-2.5839-3.3387-7.4032-3.6581-10.364-0.6387-1.9161 1.9452-2.4968 4.3258-2.2064 6.9968 0.46452 3.6581 3.6 6.5903 7.1419 6.7064z" opacity=".94" stroke-width=".29032"/><g transform="matrix(.65536 0 0 .65536 295.69 355.5)"><path d="m37.164 60.964c-19.746 0.414-35.769 13.786-37.164 30.658h18.693l9e-3 -0.104c0.9-10.901 6.48-21.019 15.712-28.487 0.891-0.719 1.809-1.409 2.75-2.067m7.456-33.717c0-2.408 0.255-4.747 0.731-6.98-2.211-1.199-4.662-1.872-7.244-1.872-9.761 0-17.673 9.526-17.673 21.279 0 11.395 7.437 20.695 16.78 21.253 4.202-2.928 8.886-5.22 13.868-6.815 1.054-1.366 1.952-2.902 2.681-4.568-5.56-5.18-9.143-13.248-9.143-22.297m48.375-0.253c0-14.909-10.037-26.994-22.417-26.994-12.381 0-22.417 12.085-22.417 26.994 0 13.36 8.063 24.457 18.651 26.61-23.855 1.586-42.865 18.11-44.574 38.776h96.68c-1.71-20.666-20.719-37.19-44.576-38.775 10.588-2.154 18.653-13.248 18.653-26.611m27.725 13.442c0-11.753-7.912-21.28-17.674-21.28-2.583 0-5.031 0.676-7.243 1.872 0.479 2.233 0.729 4.573 0.729 6.98 0 9.05-3.582 17.117-9.144 22.293 0.726 1.666 1.627 3.202 2.678 4.571 4.984 1.596 9.667 3.888 13.868 6.813 9.351-0.555 16.786-9.856 16.786-21.249m20.436 51.947c-1.396-16.872-17.418-30.243-37.164-30.657 0.94 0.657 1.857 1.346 2.749 2.066 9.23 7.469 14.812 17.586 15.713 28.484l9e-3 0.104z"/></g><g transform="matrix(1.8 0 0 1.8 140.21 332.61)"><path d="m47 11h-30c-3.86 0-7 3.14-7 7v8h10.04c0.51001-6.15 5.68-11 11.96-11s11.45 4.85 11.96 11h10.04v-8c0-3.86-3.14-7-7-7z"/><path d="m32 39c-6.28 0-11.45-4.85-11.96-11h-10.04v18c0 3.86 3.14 7 7 7h30c3.86 0 7-3.14 7-7v-18h-10.04c-0.51001 6.15-5.68 11-11.96 11zm9.88 10h-19.76c-0.54999 0-1-0.45001-1-1s0.45001-1 1-1h19.76c0.54999 0 1 0.45001 1 1s-0.45001 1-1 1zm0-5h-19.76c-0.54999 0-1-0.45001-1-1s0.45001-1 1-1h19.76c0.54999 0 1 0.45001 1 1s-0.45001 1-1 1z"/><path d="m32 37c5.5137 0 10-4.4863 10-10s-4.4863-10-10-10c-5.5142 0-10 4.4863-10 10s4.4858 10 10 10zm0-18c4.4111 0 8 3.5889 8 8 0 1.8772-0.65436 3.6019-1.741 4.9681-0.97626-1.9443-2.8239-3.3746-5.0345-3.7656 1.0449-0.46912 1.7756-1.5139 1.7756-2.7335 0-1.6569-1.3431-3-3-3s-3 1.3431-3 3c0 1.2196 0.73065 2.2643 1.7756 2.7335-2.2106 0.39099-4.0583 1.8213-5.0345 3.7656-1.0867-1.3662-1.741-3.0909-1.741-4.9681 0-4.4111 3.5889-8 8-8z"/></g><path d="m-106.86 359.47c-4.6252 0-6.8205 3.2658-7.595 6.7064-2.7721 12.403-14.552 31.269-37.975 31.269-5.7497 0-11.188-1.3063-16.056-3.6l4.0101-3.995c2.7267-2.6127 4.4506-4.2152 4.4506-7.595 0-3.9722-3.3265-7.595-7.5949-7.595h-22.785c-4.6256 0-7.5953 3.7367-7.5953 7.595v22.785c0 4.1089 3.2506 7.595 7.5953 7.595 3.6758 0 5.2251-2.0734 7.5949-4.5114l3.0985-3.0912c7.975 4.8076 17.294 7.6026 27.282 7.6026 37.899 0 53.165-36.076 53.165-45.099 0-5.514-4.0329-8.0659-7.5949-8.0659zm-83.545-6.7064c2.7722-12.395 14.552-31.269 37.975-31.269 5.7493 0 11.187 1.2988 16.056 3.5924l-4.01 4.0026c-2.7267 2.6127-4.4506 4.2152-4.4506 7.595 0 3.9722 3.3265 7.595 7.595 7.595h22.785c4.6252 0 7.5949-3.7367 7.5949-7.595v-22.785c0-4.1089-3.2506-7.595-7.5949-7.595-3.6761 0-5.2254 2.0734-7.595 4.5114l-3.0988 3.0912c-7.9746-4.8076-17.294-7.6026-27.281-7.6026-37.899 0-53.165 36.076-53.165 45.099 0 5.514 4.0329 8.0659 7.5949 8.0659 4.6256 0 6.8205-3.2658 7.5953-6.7064z" stroke-width="7.595"/><text x="-312.79028" y="556.80725" fill="#000000" font-family="sans-serif" font-size="80px" letter-spacing="0px" stroke-width="2" word-spacing="0px" style="line-height:1.25" xml:space="preserve"><tspan x="-312.79028" y="556.80725" fill="#ffffff" font-family="sans-serif" stroke-width="2">ModuleLoader</tspan></text>
</g><style type="text/css">
	.st0{fill:none;stroke:#000000;stroke-width:8;stroke-miterlimit:10;}
	.st1{display:none;}
	.st2{display:inline;opacity:0.25;fill:#F45EFD;}
</style><style type="text/css">
	.st0{fill:#1E1E1E;}
	.st1{fill:#464646;stroke:#21759B;stroke-width:2;stroke-miterlimit:10;}
	.st2{fill:#FFFFFF;}
</style></svg>
