<?xml version="1.0" encoding="UTF-8"?>
<svg version="1.1" viewBox="0 0 833.69 835.26" xmlns="http://www.w3.org/2000/svg" xmlns:xlink="http://www.w3.org/1999/xlink">
<style>.s0{stroke-width:1;stroke:#000;}.s1{fill:#1a1a1a;}.s2{fill:#811;}.s3{fill:#590a0a;}.s4{-inkscape-font-specification:Aharoni CLM Bold;fill:#000;font-family:Aharoni CLM;}.s5{-inkscape-font-specification:Aharoni CLM Bold;fill:#c9c0af;font-family:Aharoni CLM;}</style>
<title>Redstoner Logo</title>
<defs>
<filter id="e" color-interpolation-filters="sRGB">
<feGaussianBlur stdDeviation="3.550001"/>
</filter>
<filter id="d" color-interpolation-filters="sRGB">
<feGaussianBlur stdDeviation="4.9"/>
</filter>
<filter id="c" color-interpolation-filters="sRGB">
<feGaussianBlur stdDeviation="14.534259"/>
</filter>
<filter id="b" color-interpolation-filters="sRGB">
<feGaussianBlur stdDeviation="3.8358112"/>
</filter>
<linearGradient id="a" x1="400" x2="400" y1="642.36" y2="642.36" gradientUnits="userSpaceOnUse">
<stop stop-color="#b31a12" offset="0"/>
<stop stop-color="#8f2620" offset="1"/>
</linearGradient>
</defs>
<g transform="translate(16.845 -230.98)">
<path d="m40 372.36s175.26 18.464 360-87.5c184.45 105.8 360 87.5 360 87.5s60 540-360 640c-420-100-360-640-360-640z" fill="none" filter="url(#c)" stroke="#1a1a1a" stroke-width="38"/>
<path d="m40 372.36s175.26 18.464 360-87.5c184.45 105.8 360 87.5 360 87.5s60 540-360 640c-420-100-360-640-360-640z" fill="#c9c0ad" stroke="url(#a)" stroke-width="38"/>
<path d="m57.5 392.36s170.7 12.852 342.5-85.694c171.54 98.395 342.5 85.694 342.5 85.694s48.1 507.5-342.5 600.5c-390.6-93-342.5-600.5-342.5-600.5z" fill="none" stroke="#fff" stroke-width="3.72"/>
</g>
<g transform="translate(16.845 21.382)">
<path d="m588 390-14-24h-146l13.058 13.452-28.058-13.452h-60v59l13 16h132v80h-205v-280l15-10v-20h190v65h90v-55h-35l35-10-1-63.691-9-11.691-171 0.3828-4 4 0.75 17.5 57.25 36.5-61-34-4-21.5-6-2.5h-162l-20 32v113l30 5h-30l-0.22586 183.01-1.1408 51.698 61.445-5e-3 -10.278-42.003 15.722 41.997 314.89-0.0104-0.10321-44.672-30.052-4.3361 29.948-2.3361z" fill="#1a1a1a" filter="url(#b)" stroke="#1a1a1a" stroke-width="5"/>
<path d="m588 390-14-24h-146l13.058 13.452-28.058-13.452h-60v59l13 16h132v80h-205v-280l15-10v-20h190v65h90v-55h-35l35-10-1-63.691-9-11.691-171 0.3828-4 4 0.75 17.5 57.25 36.5-61-34-4-21.5-6-2.5h-162l-20 32v113l30 5h-30l-0.22586 183.01-1.1408 51.698 61.445-5e-3 -10.278-42.003 15.722 41.997 314.89-0.0104-0.10321-44.672-30.052-4.3361 29.948-2.3361z" fill="none" stroke="#912a2c" stroke-width="5"/>
<path d="m588 390-14-24h-146l13.058 13.452-28.058-13.452h-60v59l13 16h132v80h-205v-280l15-10v-20h190v65h90v-55h-35l35-10-1-63.691-9-11.691-171 0.3828-4 4 0.75 17.5 57.25 36.5-61-34-4-21.5-6-2.5h-162l-20 32v113l30 5h-30l-0.22586 183.01-1.1408 51.698 61.445-5e-3 -10.278-42.003 15.722 41.997 314.89-0.0104-0.10321-44.672-30.052-4.3361 29.948-2.3361z" fill="#b6aa8f"/>
</g>
<g transform="translate(16.845 21.382)">
<g transform="translate(.84375 3)" fill="#1a1a1a" filter="url(#d)">
<path d="m800 580h-125v120h125l-65-60zm-80 60h-45v60m45-60h-45v60zm-720-60h125v120h-125l65-60zm80 60h45v60z"/>
<rect x="80" y="520" width="640" height="120"/>
</g>
<g transform="translate(.84375 -5)">
<path d="m800 580h-125v120h125l-65-60z" fill="#811"/>
<path d="m720 640h-45v60z" fill="#590a0a"/>
<path d="m0 580h125v120h-125l65-60z" fill="#811"/>
<path d="m80 640h45v60z" fill="#590a0a"/>
<rect x="80" y="520" width="640" height="120" fill="#9e1111"/>
</g>
<g transform="matrix(.96332 0 0 1.0381 -14 0)" filter="url(#e)" opacity=".771">
<path class="s4" d="m111.59 602.83h16.389v-33.855l23.208 33.855h20.217l-23.926-32.658c6.8188-1.6748 10.168-3.23 13.996-6.4599 5.9814-5.144 9.0917-12.202 9.0917-20.935 0-8.9721-3.23-16.628-9.331-21.772-5.7421-4.9047-12.082-6.5795-24.165-6.5795h-25.481v88.405m16.389-46.176v-26.557h7.2973c7.6562 0 11.843 0.8374 14.475 3.1103 2.8711 2.2729 4.3066 5.7421 4.3066 10.049 0 9.331-5.3833 13.398-18.064 13.398h-8.0151m53.074 46.176h47.492v-15.671h-31.103v-20.576h29.787v-15.671h-29.787v-20.815h31.103v-15.671h-47.492v88.405h47.492v-15.671h-31.103v-20.576h29.787v-15.671h-29.787v-20.815h31.103v-15.671h-47.492v88.405m62.084 0h20.576c13.398 0 21.413-1.3159 28.591-4.9048 13.638-6.6992 21.653-21.294 21.653-39.118 0-16.748-6.9384-30.625-19.26-38.042-6.9384-4.187-17.466-6.3403-31.343-6.3403h-20.217v88.405m16.389-15.671v-57.063h3.23c10.408 0 16.03 0.95703 21.174 3.5888 8.374 4.3066 13.518 13.757 13.518 25.122 0 10.647-4.9048 20.098-12.8 24.404-4.9048 2.7514-11.724 3.9477-21.533 3.9477h-3.5888m60.863-9.5702c0.59814 6.9384 2.1533 11.365 5.7421 16.03 5.2636 6.8188 13.996 10.767 23.327 10.767 15.91 0 28.232-12.322 28.232-28.352 0-7.2973-2.7514-13.638-7.8954-18.423-3.4692-3.23-6.3403-4.7851-14.953-8.0151-8.374-3.1103-8.6132-3.23-9.8095-3.9477-3.23-2.0337-4.9048-4.7851-4.9048-8.0151 0-5.2636 3.7085-8.9721 9.0917-8.9721 5.5029 0 8.8525 3.3496 9.331 9.331h16.987c-0.35888-6.6992-1.914-11.245-5.5029-15.671-4.7851-5.9814-12.441-9.4506-20.696-9.4506-14.236 0-25.72 11.125-25.72 25.122 0 11.125 6.5796 19.619 18.423 24.045 11.843 4.4262 12.561 4.7851 15.312 6.8188 2.6318 2.1533 4.0674 5.2636 4.0674 8.9721 0 6.3403-4.9048 10.767-11.963 10.767-7.2973 0-11.245-3.5888-11.963-11.006h-17.107m77.636 25.242h16.389v-72.734h16.389v-15.671h-49.167v15.671h16.389v72.734m83.143-89.96c-26.318 0-46.655 19.978-46.655 45.818 0 25.481 20.576 45.698 46.535 45.698 25.72 0 45.578-19.978 45.578-45.818 0-25.241-20.217-45.698-45.459-45.698m-0.23926 15.791c16.389 0 29.189 13.159 29.189 30.146s-12.441 29.787-29.189 29.787c-16.748 0-29.907-13.159-29.907-29.907 0-17.107 12.92-30.027 29.907-30.027m58.635 74.169h16.389v-64.24l36.965 64.24h18.303v-88.405h-16.389v64.36l-36.606-64.36h-18.662v88.405m88.546 0h47.492v-15.671h-31.103v-20.576h29.787v-15.671h-29.787v-20.815h31.103v-15.671h-47.492v88.405m62.084 0h16.389v-33.855l23.208 33.855h20.217l-23.926-32.658c6.8188-1.6748 10.168-3.23 13.996-6.4599 5.9814-5.144 9.0917-12.202 9.0917-20.935 0-8.9721-3.23-16.628-9.331-21.772-5.7421-4.9047-12.082-6.5795-24.165-6.5795h-25.481v88.405m16.389-46.176v-26.557h7.2973c7.6562 0 11.843 0.8374 14.475 3.1103 2.8711 2.2729 4.3066 5.7421 4.3066 10.049 0 9.331-5.3833 13.398-18.064 13.398h-8.0151"/>
</g>
<g transform="scale(.96332 1.0381)" fill="#c9c0af">
<path class="s5" d="m97.06 598.11h16.389v-33.855l23.208 33.855h20.217l-23.926-32.658c6.8188-1.6748 10.168-3.23 13.996-6.4599 5.9814-5.144 9.0917-12.202 9.0917-20.935 0-8.9721-3.23-16.628-9.331-21.772-5.7421-4.9047-12.082-6.5795-24.165-6.5795h-25.481v88.405m16.389-46.176v-26.557h7.2973c7.6562 0 11.843 0.8374 14.475 3.1103 2.8711 2.2729 4.3066 5.7422 4.3066 10.049 0 9.331-5.3833 13.398-18.064 13.398h-8.0151m53.074 46.176h47.492v-15.671h-31.103v-20.576h29.787v-15.671h-29.787v-20.815h31.103v-15.671h-47.492v88.405h47.492v-15.671h-31.103v-20.576h29.787v-15.671h-29.787v-20.815h31.103v-15.671h-47.492v88.405m62.084 0h20.576c13.398 0 21.413-1.3159 28.591-4.9048 13.638-6.6992 21.653-21.294 21.653-39.118 0-16.748-6.9384-30.625-19.26-38.042-6.9384-4.187-17.466-6.3403-31.343-6.3403h-20.217v88.405m16.389-15.671v-57.063h3.23c10.408 0 16.03 0.95703 21.174 3.5888 8.374 4.3066 13.518 13.757 13.518 25.122 0 10.647-4.9048 20.098-12.8 24.404-4.9047 2.7514-11.724 3.9477-21.533 3.9477h-3.5888m60.863-9.5702c0.59814 6.9384 2.1533 11.365 5.7421 16.03 5.2636 6.8188 13.996 10.767 23.327 10.767 15.91 0 28.232-12.322 28.232-28.352 0-7.2973-2.7514-13.638-7.8954-18.423-3.4692-3.23-6.3403-4.7851-14.953-8.0151-8.374-3.1103-8.6132-3.23-9.8095-3.9477-3.23-2.0337-4.9048-4.7851-4.9048-8.0151 0-5.2636 3.7085-8.9721 9.0917-8.9721 5.5029 0 8.8525 3.3496 9.331 9.331h16.987c-0.35889-6.6992-1.914-11.245-5.5029-15.671-4.7851-5.9814-12.441-9.4506-20.696-9.4506-14.236 0-25.72 11.125-25.72 25.122 0 11.125 6.5796 19.619 18.423 24.045 11.843 4.4262 12.561 4.7851 15.312 6.8188 2.6318 2.1533 4.0674 5.2636 4.0674 8.9721 0 6.3403-4.9048 10.767-11.963 10.767-7.2973 0-11.245-3.5888-11.963-11.006h-17.107m77.636 25.242h16.389v-72.734h16.389v-15.671h-49.167v15.671h16.389v72.734m83.143-89.96c-26.318 0-46.655 19.978-46.655 45.818 0 25.481 20.576 45.698 46.535 45.698 25.72 0 45.578-19.978 45.578-45.818 0-25.241-20.217-45.698-45.459-45.698m-0.23926 15.791c16.389 0 29.189 13.159 29.189 30.146s-12.441 29.787-29.189 29.787c-16.748 0-29.907-13.159-29.907-29.907 0-17.107 12.92-30.027 29.907-30.027m58.635 74.169h16.389v-64.24l36.965 64.24h18.303v-88.405h-16.389v64.36l-36.606-64.36h-18.662v88.405m88.546 0h47.492v-15.671h-31.103v-20.576h29.787v-15.671h-29.787v-20.815h31.103v-15.671h-47.492v88.405m62.084 0h16.389v-33.855l23.208 33.855h20.217l-23.926-32.658c6.8188-1.6748 10.168-3.23 13.996-6.4599 5.9814-5.144 9.0917-12.202 9.0917-20.935 0-8.9721-3.23-16.628-9.331-21.772-5.7421-4.9047-12.082-6.5795-24.165-6.5795h-25.481v88.405m16.389-46.176v-26.557h7.2973c7.6562 0 11.843 0.8374 14.475 3.1103 2.8711 2.2729 4.3066 5.7422 4.3066 10.049 0 9.331-5.3833 13.398-18.064 13.398h-8.0151"/>
</g>
</g>
</svg>
